<?xml version="1.0" encoding="utf-8"?>
<!-- Generator: Adobe Illustrator 16.0.4, SVG Export Plug-In . SVG Version: 6.00 Build 0)  -->
<!DOCTYPE svg PUBLIC "-//W3C//DTD SVG 1.1//EN" "http://www.w3.org/Graphics/SVG/1.1/DTD/svg11.dtd">
<svg version="1.1" id="Layer_1" xmlns="http://www.w3.org/2000/svg" xmlns:xlink="http://www.w3.org/1999/xlink" x="0px" y="0px"
	 width="121.219px" height="49px" viewBox="0 0 121.219 49" enable-background="new 0 0 121.219 49" xml:space="preserve">
<path fill="#37373A" d="M107.753,4.591c0,0-0.006-0.003-0.016-0.008C107.743,4.588,107.748,4.591,107.753,4.591z"/>
<g>
	<linearGradient id="SVGID_1_" gradientUnits="userSpaceOnUse" x1="60.6089" y1="0" x2="60.6089" y2="52.087">
		<stop  offset="0" style="stop-color:#DC9E47"/>
		<stop  offset="1" style="stop-color:#CA6328"/>
	</linearGradient>
	<path fill="url(#SVGID_1_)" d="M121.124,42.95c0.032,0,0.062,0.005,0.095,0.005V6.109c-0.032,0-0.062,0.005-0.095,0.005
		c-3.34,0-6.049-2.708-6.049-6.05c0-0.021,0.003-0.042,0.004-0.064H6.046c0,0.021,0.003,0.042,0.003,0.064
		c0,3.341-2.708,6.05-6.05,6.05V42.95c3.341,0,6.05,2.708,6.05,6.05h109.025C115.075,45.658,117.784,42.95,121.124,42.95z"/>
</g>
<g>
	<g>
		<path fill="none" d="M14.476,34.082l-2.09,4.861l0.751,0.705l3.501-4.588C16.322,34.967,15.406,34.664,14.476,34.082z"/>
		<path fill="none" d="M15.146,19.541c-0.066-0.068-0.062-0.573,1.938-1.811c2.566-1.588,6.24-1.597,6.24-1.229l0.08,0.239
			l0.139,0.478c0,0,1.077,3.659,7.722,1.956c0,0-0.276-4.334-5.001-4.684c-3.804-0.282-0.989,0.724-0.989,0.724
			s3.63-0.02,4.405,3.22c0,0-3.991,1.009-5.538-1.763c0,0,1.568,1.554,4.199,1.271c0,0,0.787-1.761-4.496-2.324
			c0,0-0.95-0.443-2.57-2.063c-1.462-1.462-3.139-2.045-4.539-1.742c0,0-3.235-2.476-4.614-2.587
			c-0.028-0.093,0.036,1.159-0.658,1.436c-0.694,0.276-0.919,0.135-0.706-0.186c0.372-0.557,0.705-1.574-0.444-1.014
			c0,0-1.571,1.534-1.152,3.056c0.233,0.848,3.105,4.45,4.443,6.917C14.333,19.158,15.033,19.484,15.146,19.541z M14.436,12.194
			c1.109,0.334,1.634,1.049,1.634,1.049c3.826,0.148,3.871,1.701,3.877,1.889c-1.951,0.587-2.825,1.389-4.455-1.599
			c-0.422-0.775-1.074-0.951-1.32-1.057C13.972,12.39,14.037,12.074,14.436,12.194z"/>
		<path fill="none" d="M13.131,32.977l-1.278,5.641l2.003-4.968C13.6,33.449,13.354,33.225,13.131,32.977z"/>
		<path fill="none" d="M16.662,36.305c-1.193,1.283-3.042,3.631-3.042,3.631l3.107-2.688C16.684,36.953,16.662,36.639,16.662,36.305
			z"/>
		<path fill="none" d="M38.441,20.813c0,0-0.994-5.777-5.996-4.721c0,0-0.54-3.968-6.105-2.348c1.149-0.127,4.853-0.735,6.016,6.133
			c0,0-5.107,2.184-9.595-1.417c-0.719-0.669-2.104-0.377-3.433,0.077c-1.561,0.533-2.492,3.037-2.492,3.037
			c-2.998,0.506-3,2.474-2.572,3.747c1.038-1.013,2.324-2.028,4.708-1.287c0,0,1.374-2.395,3.91-2.465c0,0,4.438-0.563,5.917,1.761
			c0,0,7.984-3.165,9.528,3.309c0,0,1.066,5.559-3.083,6.853c0,0-4.037,1.506-5.939-0.113c0,0-3.825,2.184-7.347,0
			c0,0-3.541-2.171-0.935-4.688c0,0,4.438-3.91,7.29-0.212c0,0,0.951,1.69-1.268,1.901c0,0-1.86,1.732-2.853,0.317
			c0,0-0.105-1.162,0.592-0.745c0,0,0.352,0.774,0.634,0.141c0,0,0.141-1.551-0.986-1.197c0,0-1.338,0-1.479,1.619
			c-0.141,1.621,1.268,1.832,1.902,2.043c0.634,0.211,3.285,0.422,4.412-1.198c0,0,2.665,1.485,4.607-1.446
			c0,0,2.041-3.025-1.306-4.399c0,0-2.395-0.775-4.015,0c0,0-1.654-1.558-4.543-0.916c-2.536,0.564-3.98,1.585-3.909,2.149
			c0,0-1.303-0.67-3.276,0.598c-1.972,1.269-1.902,3.382-0.986,4.579c0.916,1.198,2.254,1.901,3.029,2.254
			c0,0-1.328,1.645,4.232,3.653c5.571,2.014,7.043-1.561,7.326-1.006c0,0,4.246,1.119,6.646-0.021
			c4.49-2.134,4.93-4.795,4.226-5.711c0,0,3.033-2.379,2.138-6.312C42.771,21.863,39.354,20.737,38.441,20.813z"/>
		<path fill="none" d="M16.877,37.949l-2.801,2.403l0.657,0.563l3.747-0.566C17.79,39.803,17.185,39.033,16.877,37.949z"/>
		<path fill="#37373A" d="M15.162,19.549c0,0-0.006-0.003-0.016-0.008C15.151,19.546,15.157,19.549,15.162,19.549z"/>
		<path fill="none" d="M43.101,19.63c-1.179-0.578-2.187-0.739-2.187-0.739c-0.564-3.064-2.458-4.344-4.21-4.858
			c-1.752-0.515-3.365-0.263-3.365-0.263c-1.224-1.037-2.456-1.75-3.997-1.978c-1.542-0.227-3.474-0.03-5.849,1.138
			c-0.78-0.669-1.637-1.348-2.294-1.663c-0.657-0.315-1.119-0.463-1.119-0.463c-0.887-0.371-1.634-0.482-2.159-0.502
			c-0.525-0.02-0.829,0.054-0.829,0.054c-1.085-0.91-2.58-1.583-3.802-2.027c-1.222-0.445-2.173-0.663-2.173-0.663
			c-0.747-0.168-1.511,0.17-2.512,1.07c-1.11,0.997-1.264,2.48-1.264,2.48c-0.26,1.856,0.242,2.072,1.318,4.167
			c1.076,2.095,1.943,3.395,2.935,5.03c-0.81,0.715-1.849,2.971-1.738,4.555c0.188,2.677,0.787,3.465,2.272,6.022
			c0.04,0.228,0.1,0.444,0.176,0.65c0.076,0.205,0.169,0.4,0.276,0.586c-0.134,0.914-0.426,2.811-0.798,4.646
			c-0.372,1.835-0.823,3.608-1.276,4.277c0,0-0.084,0.134-0.04,0.268c0.045,0.133,0.219,0.267,0.736,0.267
			c0,0,2.056,0.009,4.493,0.015s5.252,0.01,6.773,0c3.883,0.119,6.011-0.213,7.168-0.572c1.158-0.361,1.344-0.751,1.344-0.751
			c3.102,1.278,5.508,1.374,7.141,1.151c1.632-0.223,2.488-0.766,2.488-0.766c2.894-1.484,4.254-3.455,4.892-5.054
			s0.552-2.827,0.552-2.827c1.794-0.399,2.627-2.82,2.827-4.767C49.398,23.089,44.281,20.208,43.101,19.63z M9.161,12.515
			c-0.418-1.522,1.152-3.056,1.152-3.056c1.149-0.56,0.816,0.457,0.444,1.014c-0.213,0.32,0.012,0.462,0.706,0.186
			c0.693-0.276,0.629-1.529,0.658-1.436c1.378,0.112,4.614,2.587,4.614,2.587c1.4-0.303,3.077,0.28,4.539,1.742
			c1.62,1.62,2.57,2.063,2.57,2.063c5.283,0.563,4.496,2.324,4.496,2.324c-2.631,0.283-4.199-1.271-4.199-1.271
			c1.546,2.772,5.538,1.763,5.538,1.763c-0.774-3.24-4.405-3.22-4.405-3.22s-2.815-1.006,0.989-0.724
			c4.725,0.35,5.001,4.684,5.001,4.684c-6.645,1.703-7.722-1.956-7.722-1.956l-0.139-0.478l-0.08-0.239
			c0-0.368-3.674-0.359-6.24,1.229c-2,1.238-2.004,1.743-1.938,1.811c0.01,0.005,0.016,0.008,0.016,0.008
			c-0.005,0-0.011-0.003-0.016-0.008c-0.112-0.057-0.812-0.383-1.542-0.108C12.266,16.965,9.395,13.363,9.161,12.515z
			 M13.131,32.977c0.223,0.248,0.469,0.473,0.725,0.673l-2.003,4.968L13.131,32.977z M12.386,38.943l2.09-4.861
			c0.93,0.582,1.847,0.885,2.162,0.979l-3.501,4.588L12.386,38.943z M16.662,36.305c0,0.334,0.022,0.648,0.066,0.943l-3.107,2.688
			C13.62,39.936,15.469,37.588,16.662,36.305z M14.733,40.916l-0.657-0.563l2.801-2.403c0.308,1.084,0.913,1.854,1.604,2.4
			L14.733,40.916z M41.296,31.092c0.705,0.916,0.265,3.577-4.226,5.711c-2.399,1.141-6.646,0.021-6.646,0.021
			c-0.283-0.555-1.755,3.02-7.326,1.006c-5.561-2.009-4.232-3.653-4.232-3.653c-0.775-0.353-2.113-1.056-3.029-2.254
			c-0.916-1.197-0.986-3.311,0.986-4.579c1.973-1.268,3.276-0.598,3.276-0.598c-0.071-0.564,1.374-1.585,3.909-2.149
			c2.889-0.642,4.543,0.916,4.543,0.916c1.62-0.775,4.015,0,4.015,0c3.346,1.374,1.306,4.399,1.306,4.399
			c-1.942,2.932-4.607,1.446-4.607,1.446c-1.127,1.62-3.778,1.409-4.412,1.198c-0.634-0.211-2.042-0.422-1.902-2.043
			c0.141-1.619,1.479-1.619,1.479-1.619c1.127-0.354,0.986,1.197,0.986,1.197c-0.282,0.634-0.634-0.141-0.634-0.141
			c-0.698-0.417-0.592,0.745-0.592,0.745c0.993,1.415,2.853-0.317,2.853-0.317c2.219-0.211,1.268-1.901,1.268-1.901
			c-2.853-3.698-7.29,0.212-7.29,0.212c-2.605,2.517,0.935,4.688,0.935,4.688c3.522,2.184,7.347,0,7.347,0
			c1.902,1.619,5.939,0.113,5.939,0.113c4.149-1.294,3.083-6.853,3.083-6.853c-1.544-6.474-9.528-3.309-9.528-3.309
			c-1.479-2.325-5.917-1.761-5.917-1.761c-2.536,0.07-3.91,2.465-3.91,2.465c-2.384-0.741-3.67,0.274-4.708,1.287
			c-0.427-1.273-0.426-3.241,2.572-3.747c0,0,0.931-2.504,2.492-3.037c1.33-0.454,2.714-0.746,3.433-0.077
			c4.488,3.601,9.595,1.417,9.595,1.417c-1.163-6.868-4.867-6.261-6.016-6.133c5.565-1.62,6.105,2.348,6.105,2.348
			c5.001-1.057,5.996,4.721,5.996,4.721c0.914-0.076,4.33,1.05,4.993,3.967C44.329,28.713,41.296,31.092,41.296,31.092z"/>
	</g>
	<path fill="#FFFFFF" d="M41.296,31.092c0.705,0.916,0.265,3.577-4.226,5.711c-2.399,1.141-6.646,0.021-6.646,0.021
		c-0.283-0.555-1.755,3.02-7.326,1.006c-5.561-2.009-4.232-3.653-4.232-3.653c-0.775-0.353-2.113-1.056-3.029-2.254
		c-0.916-1.197-0.986-3.311,0.986-4.579c1.973-1.268,3.276-0.598,3.276-0.598c-0.071-0.564,1.374-1.585,3.909-2.149
		c2.889-0.642,4.543,0.916,4.543,0.916c1.62-0.775,4.015,0,4.015,0c3.346,1.374,1.306,4.399,1.306,4.399
		c-1.942,2.932-4.607,1.446-4.607,1.446c-1.127,1.62-3.778,1.409-4.412,1.198c-0.634-0.211-2.042-0.422-1.902-2.043
		c0.141-1.619,1.479-1.619,1.479-1.619c1.127-0.354,0.986,1.197,0.986,1.197c-0.282,0.634-0.634-0.141-0.634-0.141
		c-0.698-0.417-0.592,0.745-0.592,0.745c0.993,1.415,2.853-0.317,2.853-0.317c2.219-0.211,1.268-1.901,1.268-1.901
		c-2.853-3.698-7.29,0.212-7.29,0.212c-2.605,2.517,0.935,4.688,0.935,4.688c3.522,2.184,7.347,0,7.347,0
		c1.902,1.619,5.939,0.113,5.939,0.113c4.149-1.294,3.083-6.853,3.083-6.853c-1.544-6.474-9.528-3.309-9.528-3.309
		c-1.479-2.325-5.917-1.761-5.917-1.761c-2.536,0.07-3.91,2.465-3.91,2.465c-2.384-0.741-3.67,0.274-4.708,1.287
		c-0.427-1.273-0.426-3.241,2.572-3.747c0,0,0.931-2.504,2.492-3.037c1.33-0.454,2.714-0.746,3.433-0.077
		c4.488,3.601,9.595,1.417,9.595,1.417c-1.163-6.868-4.867-6.261-6.016-6.133c5.565-1.62,6.105,2.348,6.105,2.348
		c5.001-1.057,5.996,4.721,5.996,4.721c0.914-0.076,4.33,1.05,4.993,3.967C44.329,28.713,41.296,31.092,41.296,31.092z"/>
	<path fill="#FFFFFF" d="M14.733,40.916l-0.657-0.563l2.801-2.403c0.308,1.084,0.913,1.854,1.604,2.4L14.733,40.916z"/>
	<path fill="#FFFFFF" d="M12.386,38.943l2.09-4.861c0.93,0.582,1.847,0.885,2.162,0.979l-3.501,4.588L12.386,38.943z"/>
	<path fill="#FFFFFF" d="M13.131,32.977c0.223,0.248,0.469,0.473,0.725,0.673l-2.003,4.968L13.131,32.977z"/>
	<path fill="none" d="M13.62,39.936c0,0,1.849-2.348,3.042-3.631c0,0.334,0.022,0.648,0.066,0.943"/>
	<path fill="#FFFFFF" d="M13.62,39.936c0,0,1.849-2.348,3.042-3.631c0,0.334,0.022,0.648,0.066,0.943L13.62,39.936z"/>
	<path fill="#FFFFFF" d="M9.161,12.515c-0.418-1.522,1.152-3.056,1.152-3.056c1.149-0.56,0.816,0.457,0.444,1.014
		c-0.213,0.32,0.012,0.462,0.706,0.186c0.693-0.276,0.629-1.529,0.658-1.436c1.378,0.112,4.614,2.587,4.614,2.587
		c1.4-0.303,3.077,0.28,4.539,1.742c1.62,1.62,2.57,2.063,2.57,2.063c5.283,0.563,4.496,2.324,4.496,2.324
		c-2.631,0.283-4.199-1.271-4.199-1.271c1.546,2.772,5.538,1.763,5.538,1.763c-0.774-3.24-4.405-3.22-4.405-3.22
		s-2.815-1.006,0.989-0.724c4.725,0.35,5.001,4.684,5.001,4.684c-6.645,1.703-7.722-1.956-7.722-1.956l-0.139-0.478l-0.08-0.239
		c0-0.368-3.674-0.359-6.24,1.229c-2,1.238-2.004,1.743-1.938,1.811c0.01,0.005,0.016,0.008,0.016,0.008
		c-0.005,0-0.011-0.003-0.016-0.008c-0.112-0.057-0.812-0.383-1.542-0.108C12.266,16.965,9.395,13.363,9.161,12.515z M15.492,13.533
		c1.63,2.988,2.504,2.187,4.455,1.599c-0.006-0.188-0.051-1.741-3.877-1.889c0,0-0.525-0.714-1.634-1.049
		c-0.399-0.121-0.464,0.196-0.264,0.282C14.418,12.582,15.07,12.758,15.492,13.533z"/>
</g>
<g>
	<text transform="matrix(1 0 0 1 57.7588 21.5249)"><tspan x="0" y="0" fill="#FFFFFF" font-family="'Raleway-ExtraBold'" font-size="19.5">GOLD</tspan><tspan x="0" y="19" fill="#FFFFFF" font-family="'Raleway'" font-size="21">PASS</tspan></text>
</g>
<line fill="none" stroke="#FFFFFF" stroke-width="2" stroke-linecap="round" stroke-miterlimit="10" stroke-dasharray="0.125,4" x1="50.404" y1="7.534" x2="50.404" y2="41.188"/>
</svg>
