<?xml version="1.0" encoding="utf-8"?>
<!-- Generator: Adobe Illustrator 18.1.1, SVG Export Plug-In . SVG Version: 6.00 Build 0)  -->
<!DOCTYPE svg PUBLIC "-//W3C//DTD SVG 1.1//EN" "http://www.w3.org/Graphics/SVG/1.1/DTD/svg11.dtd">
<svg version="1.1" xmlns="http://www.w3.org/2000/svg" xmlns:xlink="http://www.w3.org/1999/xlink" x="0px" y="0px" width="318px"
	 height="318px" viewBox="0 0 318 318" enable-background="new 0 0 318 318" xml:space="preserve">
<g id="orange-thick">
	<g opacity="0.4">
		<path fill="#F15F2A" d="M297.9,159c0,17.6-3.3,34.8-9.7,51l-11.2-4.4c5.9-14.8,8.8-30.5,8.8-46.6H297.9z"/>
		<path fill="#F15F2A" d="M287.4,212c-13.8,33.3-40.7,60.6-73.9,74.7l-4.7-11c30.3-13,54.9-37.9,67.5-68.3L287.4,212z M211.6,287.6
			c-16.7,6.8-34.4,10.3-52.6,10.3c-18.2,0-35.8-3.5-52.5-10.3l4.5-11.1c15.2,6.2,31.4,9.4,48,9.4c16.6,0,32.8-3.2,48-9.4
			L211.6,287.6z M109.2,275.8l-4.7,11c-33.2-14.2-60.1-41.4-73.9-74.7l11.1-4.6C54.3,238,78.9,262.9,109.2,275.8z"/>
		<path fill="#F15F2A" d="M40.9,205.6L29.8,210c-6.4-16.2-9.7-33.4-9.7-51h12C32.1,175.1,35.1,190.8,40.9,205.6z"/>
	</g>
</g>
</svg>
