<?xml version="1.0" encoding="utf-8"?>
<!-- Generator: Adobe Illustrator 18.1.1, SVG Export Plug-In . SVG Version: 6.00 Build 0)  -->
<!DOCTYPE svg PUBLIC "-//W3C//DTD SVG 1.1//EN" "http://www.w3.org/Graphics/SVG/1.1/DTD/svg11.dtd">
<svg version="1.1" xmlns="http://www.w3.org/2000/svg" xmlns:xlink="http://www.w3.org/1999/xlink" x="0px" y="0px" width="318px"
	 height="318px" viewBox="0 0 318 318" enable-background="new 0 0 318 318" xml:space="preserve">
<g id="orange-thin">
	<path opacity="0.5" fill="#F15F2A" d="M254.4,63.6l-2.8,2.8c-2.6-2.6-5.4-5.2-8.3-7.6l2.6-3.1C248.8,58.2,251.7,60.9,254.4,63.6z
		 M244.3,54.4l-2.5,3.1c-3.1-2.5-6.3-4.9-9.5-7.1l2.3-3.3C237.8,49.4,241.1,51.8,244.3,54.4z M232.7,46l-2.2,3.4
		c-3.3-2.2-6.8-4.2-10.2-6l1.9-3.6C225.8,41.6,229.3,43.7,232.7,46z M220.4,38.8l-1.8,3.6c-3.5-1.8-7.2-3.5-10.8-4.9l1.5-3.7
		C213,35.2,216.7,36.9,220.4,38.8z M207.3,33l-1.4,3.8c-3.7-1.4-7.5-2.7-11.3-3.7l1.1-3.9C199.6,30.2,203.5,31.5,207.3,33z
		 M193.7,28.6l-1,3.9c-3.8-1-7.7-1.9-11.6-2.5l0.7-4C185.7,26.6,189.7,27.5,193.7,28.6z M179.7,25.6l-0.6,4c-3.9-0.6-7.9-1-11.8-1.3
		l0.2-4C171.5,24.6,175.6,25,179.7,25.6z M165.4,24.2l-0.2,4c-2.1-0.1-4.2-0.1-6.2-0.1c-1.9,0-3.8,0-5.7,0.1l-0.2-4
		c1.9-0.1,3.9-0.1,5.8-0.1C161.1,24.1,163.3,24.1,165.4,24.2z M151.3,28.3c-3.9,0.2-7.9,0.6-11.8,1.2l-0.6-4c4-0.6,8.1-1,12.2-1.3
		L151.3,28.3z M137.6,29.8c-3.9,0.6-7.8,1.5-11.6,2.5l-1-3.9c3.9-1,8-1.9,12-2.5L137.6,29.8z M124,32.8c-3.8,1.1-7.6,2.3-11.3,3.7
		l-1.4-3.8c3.8-1.4,7.7-2.7,11.7-3.8L124,32.8z M110.9,37.2c-3.7,1.5-7.3,3.1-10.8,4.9l-1.8-3.6c3.6-1.8,7.4-3.5,11.2-5L110.9,37.2z
		 M98.3,43c-3.5,1.8-7,3.9-10.3,6l-2.2-3.4c3.4-2.2,7-4.3,10.6-6.2L98.3,43z M86.3,50.1c-3.3,2.2-6.5,4.6-9.6,7.1L74.2,54
		c3.2-2.6,6.5-5,9.9-7.3L86.3,50.1z M75.2,58.4c-3,2.5-6,5.2-8.8,8l-2.8-2.8c2.9-2.9,5.9-5.7,9.1-8.3L75.2,58.4z"/>
</g>
</svg>
