<?xml version="1.0" encoding="utf-8"?>
<!-- Generator: Adobe Illustrator 18.1.1, SVG Export Plug-In . SVG Version: 6.00 Build 0)  -->
<!DOCTYPE svg PUBLIC "-//W3C//DTD SVG 1.1//EN" "http://www.w3.org/Graphics/SVG/1.1/DTD/svg11.dtd">
<svg version="1.1" xmlns="http://www.w3.org/2000/svg" xmlns:xlink="http://www.w3.org/1999/xlink" x="0px" y="0px" width="318px"
	 height="318px" viewBox="0 0 318 318" enable-background="new 0 0 318 318" xml:space="preserve">
<g id="white-20-multi">
	<g opacity="0.2">
		<path fill="#FFFFFF" d="M313.7,190.6l-49-10c0.6-3.2,1.2-6.4,1.5-9.6l49.7,5.6C315.4,181.3,314.7,186,313.7,190.6z M316.2,174.3
			l-49.8-4.9c0.3-3.2,0.5-6.4,0.5-9.7l50,0.4C316.9,164.8,316.7,169.6,316.2,174.3z M317,157.7l-50,0.4c0-3.2-0.2-6.4-0.5-9.6
			l49.8-4.9C316.7,148.3,316.9,153,317,157.7z M316,141.2l-49.7,5.6c-0.4-3.2-0.9-6.4-1.5-9.5l49-10.1
			C314.7,131.9,315.4,136.6,316,141.2z M313.2,124.9l-48.8,10.8c-0.7-3.1-1.5-6.3-2.5-9.3l47.6-15.2
			C311,115.7,312.2,120.3,313.2,124.9z M308.8,109l-47.4,15.9c-1-3.1-2.2-6.1-3.5-9l45.8-20C305.6,100.1,307.3,104.6,308.8,109z
			 M302.8,93.6l-45.5,20.7c-1.3-2.9-2.8-5.8-4.4-8.6l43.5-24.7C298.7,85.1,300.8,89.4,302.8,93.6z M295.2,79l-43.1,25.3
			c-1.6-2.8-3.4-5.5-5.3-8.1l40.7-29.1C290.2,71,292.8,75,295.2,79z M286.1,65.2l-40.2,29.7c-1.9-2.6-4-5.1-6.1-7.5l37.4-33.1
			C280.3,57.7,283.3,61.4,286.1,65.2z M275.6,52.5l-36.9,33.7c-2.2-2.4-4.5-4.7-6.8-6.8l33.8-36.9C269.1,45.6,272.4,49,275.6,52.5z
			 M263.8,40.8l-33.2,37.4c-2.4-2.1-4.9-4.2-7.5-6.1l29.7-40.2C256.6,34.7,260.3,37.7,263.8,40.8z M250.9,30.5l-29.1,40.7
			c-2.6-1.9-5.3-3.6-8.1-5.3L239,22.8C243.1,25.2,247.1,27.8,250.9,30.5z M237,21.6l-24.7,43.5c-2.8-1.6-5.7-3-8.6-4.4l20.6-45.5
			C228.6,17.1,232.9,19.3,237,21.6z M222.2,14.2l-19.9,45.9c-2.9-1.3-6-2.4-9.1-3.5l15.8-47.4C213.4,10.7,217.9,12.4,222.2,14.2z"/>
	</g>
</g>
</svg>
