<?xml version="1.0" encoding="utf-8"?>
<!-- Generator: Adobe Illustrator 16.0.5, SVG Export Plug-In . SVG Version: 6.00 Build 0)  -->
<!DOCTYPE svg PUBLIC "-//W3C//DTD SVG 1.1//EN" "http://www.w3.org/Graphics/SVG/1.1/DTD/svg11.dtd">
<svg version="1.1" id="Layer_1" xmlns="http://www.w3.org/2000/svg" xmlns:xlink="http://www.w3.org/1999/xlink" x="0px" y="0px"
	 width="337.447px" height="79.247px" viewBox="0 0 337.447 79.247" enable-background="new 0 0 337.447 79.247"
	 xml:space="preserve">
<g id="zen.digital">
	<g enable-background="new    ">
		<path fill="#FFFFFF" d="M117.956,32.992c-0.686,0.752-1.593,1.812-2.72,3.185c-1.127,1.373-2.336,2.892-3.626,4.558
			c-1.291,1.666-2.581,3.413-3.871,5.242c-1.291,1.83-2.425,3.577-3.405,5.242h14.014v3.822H98.895v-3.037
			c0.784-1.438,1.747-3.021,2.891-4.754c1.143-1.73,2.344-3.453,3.602-5.17c1.257-1.715,2.482-3.332,3.675-4.851
			c1.192-1.519,2.229-2.801,3.111-3.847H99.581v-3.822h18.375V32.992z"/>
		<path fill="#FFFFFF" d="M121.778,42.35c0-2.254,0.326-4.222,0.98-5.904c0.653-1.682,1.519-3.078,2.597-4.189
			c1.078-1.11,2.319-1.943,3.724-2.499c1.404-0.555,2.842-0.833,4.312-0.833c3.43,0,6.06,1.07,7.889,3.21
			c1.829,2.14,2.744,5.398,2.744,9.776c0,0.195,0,0.448,0,0.76c0,0.311-0.017,0.596-0.049,0.856h-17.444
			c0.196,2.646,0.963,4.654,2.303,6.026c1.339,1.371,3.43,2.059,6.272,2.059c1.6,0,2.947-0.139,4.042-0.417
			c1.094-0.276,1.918-0.547,2.475-0.81l0.637,3.822c-0.556,0.295-1.527,0.604-2.916,0.932c-1.389,0.326-2.964,0.49-4.729,0.49
			c-2.222,0-4.141-0.336-5.757-1.004c-1.617-0.67-2.949-1.594-3.994-2.77c-1.046-1.177-1.821-2.572-2.328-4.189
			C122.03,46.049,121.778,44.279,121.778,42.35z M139.271,39.851c0.032-2.058-0.482-3.748-1.543-5.071
			c-1.062-1.323-2.524-1.984-4.386-1.984c-1.046,0-1.968,0.204-2.769,0.612c-0.801,0.409-1.479,0.939-2.033,1.593
			c-0.556,0.654-0.989,1.405-1.299,2.254c-0.311,0.85-0.514,1.715-0.612,2.597L139.271,39.851L139.271,39.851z"/>
		<path fill="#FFFFFF" d="M150.589,30.296c1.045-0.261,2.433-0.539,4.165-0.833c1.731-0.294,3.724-0.44,5.978-0.44
			c2.025,0,3.707,0.286,5.047,0.857c1.339,0.571,2.409,1.372,3.209,2.4c0.8,1.029,1.365,2.263,1.691,3.7
			c0.325,1.437,0.489,3.021,0.489,4.753v14.309h-4.557V41.713c0-1.568-0.106-2.907-0.318-4.019c-0.213-1.11-0.563-2.01-1.054-2.695
			c-0.49-0.686-1.144-1.184-1.96-1.494c-0.817-0.311-1.83-0.466-3.038-0.466c-0.49,0-0.997,0.017-1.519,0.049
			c-0.523,0.033-1.021,0.073-1.495,0.123c-0.474,0.049-0.899,0.106-1.274,0.171c-0.376,0.066-0.646,0.115-0.809,0.147v21.511h-4.557
			V30.296H150.589z"/>
	</g>
	<g enable-background="new    ">
		<path fill="#FFFFFF" d="M186.31,51.17c0,1.47-0.465,2.59-1.396,3.355c-0.931,0.768-1.983,1.15-3.16,1.15
			c-1.176,0-2.229-0.383-3.16-1.15c-0.932-0.768-1.396-1.887-1.396-3.355s0.465-2.59,1.396-3.356
			c0.931-0.769,1.984-1.151,3.16-1.151c1.177,0,2.229,0.385,3.16,1.151C185.845,48.583,186.31,49.702,186.31,51.17z"/>
		<path fill="#FFFFFF" d="M212.476,54.208c-0.654,0.196-1.404,0.385-2.254,0.563c-0.85,0.181-1.74,0.335-2.67,0.466
			c-0.932,0.131-1.879,0.236-2.843,0.318c-0.964,0.08-1.886,0.121-2.769,0.121c-2.123,0-4.019-0.311-5.685-0.93
			c-1.666-0.621-3.071-1.512-4.215-2.672c-1.144-1.158-2.017-2.562-2.621-4.214c-0.604-1.649-0.905-3.503-0.905-5.562
			c0-2.09,0.262-3.977,0.782-5.659c0.522-1.683,1.274-3.111,2.255-4.287c0.979-1.177,2.182-2.074,3.602-2.695
			c1.422-0.62,3.047-0.932,4.877-0.932c1.012,0,1.918,0.099,2.719,0.295c0.801,0.195,1.607,0.474,2.426,0.833v-11.66l7.301-1.177
			V54.208z M195.962,41.958c0,2.254,0.508,4.067,1.52,5.439c1.013,1.371,2.517,2.059,4.509,2.059c0.653,0,1.258-0.024,1.813-0.074
			c0.555-0.049,1.012-0.105,1.371-0.172V35.931c-0.458-0.294-1.054-0.539-1.789-0.734c-0.734-0.196-1.479-0.294-2.229-0.294
			C197.694,34.903,195.962,37.254,195.962,41.958z"/>
		<path fill="#FFFFFF" d="M227.321,21.82c0,1.34-0.434,2.393-1.299,3.16c-0.865,0.768-1.887,1.151-3.062,1.151
			c-1.177,0-2.196-0.384-3.062-1.151c-0.866-0.768-1.299-1.82-1.299-3.16c0-1.34,0.433-2.393,1.299-3.161
			c0.865-0.767,1.886-1.151,3.062-1.151c1.177,0,2.196,0.385,3.062,1.151C226.89,19.427,227.321,20.48,227.321,21.82z
			 M226.636,55.042h-7.301V29.267h7.301V55.042z"/>
		<path fill="#FFFFFF" d="M255.741,51.807c0,4.215-1.07,7.342-3.209,9.384c-2.141,2.041-5.447,3.062-9.924,3.062
			c-1.566,0-3.135-0.14-4.703-0.416c-1.568-0.277-3.021-0.646-4.361-1.103l1.273-6.125c1.145,0.457,2.345,0.815,3.603,1.078
			c1.257,0.261,2.687,0.392,4.288,0.392c2.09,0,3.568-0.457,4.434-1.371c0.865-0.916,1.299-2.09,1.299-3.528v-0.931
			c-0.783,0.358-1.592,0.629-2.426,0.809c-0.832,0.18-1.738,0.27-2.719,0.27c-3.562,0-6.289-1.054-8.184-3.16
			c-1.896-2.106-2.842-5.055-2.842-8.844c0-1.896,0.293-3.619,0.881-5.171c0.589-1.551,1.447-2.883,2.574-3.993
			c1.127-1.11,2.506-1.968,4.14-2.572s3.479-0.907,5.536-0.907c0.883,0,1.789,0.042,2.721,0.123c0.932,0.082,1.854,0.188,2.77,0.318
			c0.914,0.131,1.787,0.286,2.621,0.466c0.832,0.18,1.574,0.367,2.229,0.563V51.807L255.741,51.807z M239.718,41.323
			c0,4.084,1.65,6.125,4.949,6.125c0.752,0,1.453-0.1,2.107-0.295c0.652-0.195,1.207-0.425,1.666-0.688V34.804
			c-0.359-0.064-0.784-0.122-1.273-0.171c-0.49-0.049-1.062-0.074-1.715-0.074c-1.93,0-3.365,0.638-4.312,1.911
			C240.19,37.745,239.718,39.362,239.718,41.323z"/>
		<path fill="#FFFFFF" d="M270.588,21.82c0,1.34-0.433,2.393-1.298,3.16c-0.867,0.768-1.887,1.151-3.062,1.151
			c-1.177,0-2.196-0.384-3.062-1.151c-0.867-0.768-1.299-1.82-1.299-3.16c0-1.34,0.432-2.393,1.299-3.161
			c0.864-0.767,1.886-1.151,3.062-1.151s2.195,0.385,3.062,1.151C270.155,19.427,270.588,20.48,270.588,21.82z M269.901,55.042
			h-7.301V29.267h7.301V55.042z"/>
		<path fill="#FFFFFF" d="M276.517,22.848l7.301-1.176v7.595h8.771v6.076h-8.771v9.066c0,1.535,0.271,2.76,0.81,3.674
			c0.539,0.916,1.625,1.373,3.259,1.373c0.784,0,1.594-0.074,2.426-0.222c0.834-0.146,1.592-0.351,2.278-0.612l1.029,5.685
			c-0.884,0.36-1.863,0.67-2.94,0.932c-1.078,0.261-2.4,0.392-3.97,0.392c-1.992,0-3.644-0.27-4.948-0.809
			c-1.308-0.539-2.353-1.289-3.136-2.254c-0.785-0.963-1.332-2.132-1.644-3.503c-0.311-1.372-0.465-2.892-0.465-4.558V22.848
			L276.517,22.848z"/>
		<path fill="#FFFFFF" d="M306.798,28.582c2.156,0,3.952,0.245,5.392,0.735c1.437,0.489,2.588,1.192,3.453,2.106
			c0.865,0.915,1.479,2.026,1.838,3.332c0.358,1.307,0.538,2.761,0.538,4.361v15.189c-1.045,0.229-2.497,0.499-4.36,0.809
			c-1.861,0.311-4.115,0.467-6.762,0.467c-1.667,0-3.177-0.147-4.532-0.441c-1.356-0.295-2.523-0.775-3.504-1.445
			c-0.979-0.669-1.731-1.543-2.254-2.621s-0.784-2.4-0.784-3.97c0-1.502,0.303-2.774,0.907-3.821
			c0.604-1.045,1.412-1.878,2.424-2.498c1.014-0.621,2.174-1.07,3.479-1.349c1.306-0.277,2.662-0.417,4.067-0.417
			c0.947,0,1.788,0.042,2.522,0.123c0.734,0.082,1.33,0.188,1.788,0.318v-0.686c0-1.241-0.376-2.237-1.127-2.989
			c-0.751-0.751-2.058-1.127-3.92-1.127c-1.24,0-2.467,0.09-3.675,0.27c-1.209,0.18-2.254,0.433-3.138,0.759l-0.93-5.88
			c0.424-0.13,0.955-0.27,1.592-0.416c0.638-0.147,1.33-0.277,2.082-0.393c0.752-0.113,1.545-0.212,2.377-0.294
			C305.106,28.623,305.948,28.582,306.798,28.582z M307.386,49.946c0.72,0,1.404-0.017,2.06-0.049
			c0.651-0.031,1.176-0.082,1.566-0.146v-5.537c-0.294-0.065-0.734-0.131-1.322-0.196c-0.589-0.063-1.128-0.099-1.617-0.099
			c-0.687,0-1.33,0.041-1.937,0.123c-0.604,0.082-1.135,0.237-1.592,0.465c-0.458,0.229-0.816,0.539-1.078,0.933
			c-0.262,0.392-0.393,0.882-0.393,1.47c0,1.145,0.385,1.937,1.152,2.377C304.993,49.725,306.046,49.946,307.386,49.946z"/>
		<path fill="#FFFFFF" d="M334.924,55.532c-2.124-0.033-3.847-0.262-5.17-0.688c-1.323-0.424-2.368-1.02-3.136-1.787
			c-0.769-0.768-1.291-1.698-1.568-2.793c-0.276-1.094-0.416-2.328-0.416-3.699V18.194l7.301-1.177v28.077
			c0,0.654,0.05,1.242,0.146,1.765c0.099,0.522,0.286,0.964,0.563,1.322c0.277,0.36,0.679,0.653,1.2,0.883
			c0.522,0.229,1.227,0.375,2.106,0.44L334.924,55.532z"/>
	</g>
</g>
<g id="Logo">
	<g id="Logo_1_">
		<g id="One_1_">
			<g>
				<path fill="#FFFFFF" d="M37.823,57.057C38.523,53.426,38.13,52.083,37.823,57.057L37.823,57.057z"/>
				<path fill="#FFFFFF" d="M38.187,53.811c-0.062,0-0.222,0.949-0.364,3.246C38.2,55.103,38.26,53.811,38.187,53.811L38.187,53.811
					z"/>
			</g>
			<g>
				<path fill="#FFFFFF" d="M36.756,57.885c0.032-0.366-0.036,0.021-0.126,0.638C36.697,58.268,36.743,58.049,36.756,57.885z"/>
				<path fill="#FFFFFF" d="M36.762,57.745c-0.012,0-0.066,0.328-0.132,0.778c0.066-0.255,0.112-0.474,0.126-0.638
					C36.765,57.788,36.767,57.745,36.762,57.745L36.762,57.745z"/>
			</g>
			<g>
				<path fill="#FFFFFF" d="M35.658,60.917c0.203-4.939,0.775-21.569-0.382-28.335c-1.308-7.628-0.792-13.987-0.617-14.652
					c0.883-0.402,1.92-0.615,3.005-0.615c2.809,0,5.564,1.387,7.56,3.804c1.904,2.308,1.358,8.469,0.727,15.603
					c-0.399,4.511-0.853,9.625-0.723,14.416l0.018,0.611c-0.005,0.526-0.025,1.102-0.047,1.588c-0.271-1.022-0.666-2.349-0.89-2.349
					h-0.091l-0.06,0.073c-0.065,0.082-0.083,0.104,0.105,0.93c0.396,1.729-0.025,3.87-0.321,4.633
					c-0.062-0.611-0.395-3.57-0.829-3.57H43.03l-0.066,0.062c-0.065,0.069-0.103,0.155-0.068,0.772
					c0.054,0.952,0.013,2.229-0.043,3.243c-0.216-1.019-0.504-2.137-0.588-2.225l-0.152-0.158l-0.136,0.172
					c-0.063,0.082-0.063,0.082,0.056,0.563c0.264,1.074-0.064,3.005-0.327,3.854c-0.083-1.025-0.157-2.912-0.186-3.871
					c0.011-0.166,0.014-0.34,0.006-0.491c-0.016-0.269-0.024-0.401-0.208-0.401h-0.081l-0.056,0.057
					c-0.064,0.066-0.064,0.066-0.042,0.851c-0.042,0.698-0.212,1.567-0.374,2.254c-0.105-3.009-0.192-3.008-0.413-3.008
					c-0.222,0-0.253,0.228-0.309,0.881c-0.143,1.687-0.562,3.415-0.863,4.363c0.06-0.972,0.196-2.632,0.32-4.146
					c0.329-4.018,0.323-4.021,0.235-4.117l-0.056-0.062l-0.231-0.001L39.4,51.812c-0.137,0.519-0.458,2.19-0.797,3.961
					c-0.222,1.155-0.489,2.548-0.705,3.603c0.035-0.885,0.074-1.648,0.115-2.307c0.237-1.218,0.507-3.156,0.328-3.375l-0.057-0.068
					l-0.096-0.004c-0.176,0-0.342,0-0.554,3.424c-0.255,1.297-0.731,2.652-1.055,3.398c0.054-0.52,0.147-1.244,0.24-1.895
					c0.065-0.246,0.113-0.477,0.127-0.648c0.014-0.154,0.019-0.218-0.043-0.285l-0.057-0.062h-0.084c-0.183,0-0.183,0-0.32,0.94
					c-0.158,0.604-0.453,1.461-0.714,2.217C35.705,60.782,35.681,60.849,35.658,60.917z"/>
				<path fill="#FFFFFF" d="M37.664,17.503c2.752,0,5.454,1.361,7.413,3.734c1.854,2.247,1.312,8.372,0.684,15.465
					c-0.4,4.517-0.853,9.634-0.724,14.435l0.012,0.41l0.006,0.188c-0.001,0.136-0.004,0.271-0.007,0.408
					c-0.393-1.313-0.452-1.351-0.74-1.351l-0.186,0.002l-0.114,0.145c-0.132,0.166-0.117,0.277,0.068,1.092
					c0.273,1.19,0.145,2.571-0.049,3.537c-0.142-1.138-0.427-2.711-0.915-2.711l-0.174,0.005l-0.112,0.119
					c-0.131,0.14-0.154,0.312-0.12,0.914c0.03,0.526,0.029,1.173,0.013,1.819c-0.127-0.491-0.245-0.865-0.317-0.94l-0.304-0.317
					l-0.271,0.347c-0.121,0.153-0.104,0.219,0.021,0.726c0.158,0.641,0.093,1.613-0.039,2.453c-0.043-0.891-0.081-1.886-0.1-2.484
					c0.012-0.19,0.015-0.375,0.006-0.535c-0.015-0.242-0.034-0.578-0.397-0.578h-0.161L41.045,54.5
					c-0.12,0.123-0.12,0.123-0.095,0.951c-0.011,0.194-0.034,0.406-0.064,0.627c-0.089-1.543-0.21-1.543-0.534-1.543
					c-0.408,0-0.442,0.396-0.498,1.057c-0.062,0.736-0.183,1.496-0.323,2.191c0.051-0.644,0.106-1.316,0.158-1.943
					c0.335-4.1,0.335-4.1,0.186-4.264l-0.114-0.123h-0.167L39.29,51.48l-0.075,0.283c-0.13,0.495-0.425,2.021-0.745,3.687
					c0.11-0.826,0.176-1.682,0.015-1.877l-0.121-0.142h-0.179c-0.368,0.001-0.521,0.001-0.739,3.565l-0.019,0.094
					c-0.118,0.604-0.287,1.216-0.464,1.768c0.011-0.079,0.022-0.158,0.033-0.238c0.079-0.303,0.122-0.524,0.137-0.701
					c0.015-0.168,0.027-0.301-0.092-0.432l-0.114-0.123H36.76c-0.347,0-0.372,0.168-0.5,1.062c-0.09,0.346-0.221,0.763-0.364,1.195
					c0.228-6.088,0.637-20.802-0.436-27.075c-1.25-7.294-0.832-13.49-0.64-14.485C35.663,17.696,36.642,17.503,37.664,17.503
					 M43.287,46.008c0.21,0,0.38-0.17,0.38-0.379c0-0.211-0.17-0.381-0.38-0.381c-0.209,0-0.38,0.17-0.38,0.381
					C42.907,45.838,43.077,46.008,43.287,46.008 M37.664,17.124c-1.161,0-2.242,0.236-3.147,0.661
					c-0.188,0.089-0.803,6.81,0.572,14.828c1.372,8.021,0.318,29.699,0.318,29.699c0.203-0.774,0.926-2.644,1.224-3.789
					c0.066-0.45,0.12-0.778,0.132-0.778c0.004,0,0.003,0.043-0.006,0.141c-0.014,0.164-0.06,0.385-0.126,0.64
					c-0.129,0.896-0.306,2.284-0.287,2.578c0.002,0.045,0.013,0.063,0.03,0.063c0.177,0,1.068-2.164,1.429-4.002
					c0.007-0.037,0.015-0.07,0.021-0.105c0.142-2.296,0.302-3.246,0.364-3.246c0.073,0,0.013,1.292-0.364,3.246
					c-0.062,1.011-0.122,2.277-0.167,3.845c-0.003,0.118,0.003,0.175,0.018,0.175c0.179,0,1.583-7.978,1.91-9.217
					c0.004-0.02,0.008-0.025,0.011-0.025c0.086,0-0.675,8.176-0.636,8.897c0.004,0.075,0.019,0.11,0.041,0.11
					c0.197,0,1.028-2.797,1.233-5.221c0.043-0.502,0.083-0.707,0.12-0.707c0.16,0,0.255,3.904,0.262,4.037
					c0,0.006,0.001,0.008,0.002,0.008c0.045,0,0.631-2.109,0.712-3.485c-0.012-0.429-0.018-0.71-0.012-0.71
					c0.003,0,0.009,0.066,0.018,0.222c0.008,0.146,0.005,0.312-0.006,0.488c0.035,1.188,0.13,3.521,0.211,4.228
					c0.016,0.137,0.045,0.195,0.083,0.195c0.264,0,0.956-2.98,0.593-4.458c-0.069-0.28-0.095-0.399-0.09-0.399
					c0.025,0,0.822,2.992,0.79,3.678c-0.005,0.105-0.006,0.154-0.003,0.154c0.023,0,0.277-3.152,0.173-4.994
					c-0.025-0.451-0.011-0.637,0.027-0.637c0.137,0,0.586,2.399,0.65,3.502c0.012,0.219,0.052,0.314,0.107,0.314
					c0.302,0,1.083-2.905,0.578-5.109c-0.125-0.552-0.161-0.771-0.139-0.771c0.083,0,0.975,3.062,0.987,3.324
					c0.001,0.027,0.004,0.041,0.007,0.041c0.031,0,0.121-1.58,0.133-2.801c-0.005-0.166-0.015-0.498-0.018-0.613
					c-0.332-12.313,3.146-26.262-0.047-30.132C43.103,18.249,40.195,17.124,37.664,17.124L37.664,17.124z M45.434,51.728
					c0,0.005,0,0.009,0,0.015c0.001,0.034,0.001,0.062,0.002,0.078L45.434,51.728L45.434,51.728z"/>
			</g>
			<g>
				<path fill="#FFFFFF" d="M41.33,55.474c0.011-0.177,0.014-0.343,0.006-0.488C41.308,54.521,41.311,54.836,41.33,55.474z"/>
				<path fill="#FFFFFF" d="M41.318,54.764c-0.006,0,0,0.281,0.012,0.71c0.011-0.177,0.014-0.343,0.006-0.488
					C41.327,54.833,41.321,54.764,41.318,54.764L41.318,54.764z"/>
			</g>
			<g>
				<path fill="#FFFFFF" d="M35.372,44.127c-0.001-0.842,0.024-1.689,0.049-2.562c0.028-0.946,0.057-1.923,0.053-2.943l0.038-1.141
					c-0.003,0.388-0.008,0.771-0.014,1.149c0.025,1.445-0.021,2.802-0.066,4.114l-0.044,1.379c-0.004,0.164-0.007,0.332-0.01,0.502
					C35.375,44.463,35.373,44.297,35.372,44.127z"/>
				<path fill="#FFFFFF" d="M34.761,27.958l0.634,7.058c-0.024,1.187-0.073,2.396-0.11,3.609c0.007,1.958-0.105,3.743-0.103,5.502
					c0.006,1.76,0.151,3.488,0.668,5.328c-0.284-1.84-0.313-3.568-0.272-5.326c0.048-1.758,0.145-3.543,0.11-5.495
					c0.028-1.773,0.034-3.546-0.083-5.32C35.487,31.538,35.242,29.757,34.761,27.958L34.761,27.958z"/>
			</g>
		</g>
		<g id="Zero_1_">
			<g id="Flecks_1_">
				<g>
					<path fill="#FFFFFF" d="M32.163,78.809c-1.157-0.001-2.308-0.203-3.263-0.574c0.054-0.23,0.047-0.42-0.019-0.57
						c0.047,0,0.093,0,0.14,0c1.222,0,2.415,0.162,3.569,0.319c0.882,0.12,1.726,0.235,2.565,0.28
						C34.365,78.614,33.313,78.809,32.163,78.809L32.163,78.809z"/>
					<path fill="#FFFFFF" d="M29.122,77.855c1.174,0.009,2.327,0.165,3.443,0.317c0.562,0.076,1.109,0.15,1.649,0.207
						c-0.614,0.154-1.318,0.238-2.052,0.238c-1.075,0-2.144-0.18-3.047-0.507C29.127,78.021,29.129,77.935,29.122,77.855
						 M29.021,77.474c-0.25,0-0.501,0.007-0.754,0.021c0.471,0.031,0.569,0.344,0.404,0.854c1.056,0.438,2.3,0.649,3.491,0.649
						c1.455,0,2.831-0.312,3.695-0.904C33.679,78.09,31.426,77.474,29.021,77.474L29.021,77.474z"/>
				</g>
				<g>
					<path fill="#FFFFFF" d="M43.677,79.049c0.199-0.191,0.667-0.354,1.036-0.354c0.2,0,0.307,0.048,0.34,0.091
						c0.02,0.026,0.021,0.072,0.003,0.135c-0.133,0.111-0.532,0.138-0.898,0.138L43.677,79.049z"/>
					<path fill="#FFFFFF" d="M44.713,78.504c-0.567,0-1.366,0.336-1.31,0.729c0.003,0,0.007,0,0.01,0c0.244,0,0.5,0.014,0.744,0.014
						c0.451,0,0.862-0.041,1.081-0.272C45.336,78.639,45.07,78.504,44.713,78.504L44.713,78.504z"/>
				</g>
				<g>
					<path fill="#FFFFFF" d="M37.08,78.482c0.746-0.349,1.523-0.399,2.156-0.399c0.406,0,0.81,0.023,1.202,0.049
						c0.184,0.012,0.365,0.021,0.543,0.029c-1.022,0.207-2.214,0.254-3.378,0.301C37.428,78.467,37.253,78.475,37.08,78.482z"/>
					<path fill="#FFFFFF" d="M39.235,77.891c-1,0-2.012,0.148-2.902,0.818c2.142-0.125,4.481-0.058,6.023-0.783
						c-0.259,0.043-0.535,0.06-0.824,0.06C40.821,77.986,40.032,77.891,39.235,77.891L39.235,77.891z"/>
				</g>
				<g>
					<path fill="#FFFFFF" d="M43.271,76.875c0.116-0.022,0.232-0.045,0.349-0.067c-0.225,0.051-0.455,0.095-0.687,0.133
						C43.046,76.918,43.159,76.896,43.271,76.875z"/>
					<path fill="#FFFFFF" d="M46.023,76.094c-1.945,0.496-4.115,0.773-6.023,1.308C42.342,77.301,44.515,77.03,46.023,76.094
						L46.023,76.094z"/>
				</g>
				<g>
					<path fill="#FFFFFF" d="M40.261,76.355c0.542-0.155,1.721,0.321,1.834-0.261C41.552,76.249,40.375,75.769,40.261,76.355z"/>
					<path fill="#FFFFFF" d="M40.815,76.054c-0.285,0-0.508,0.062-0.554,0.301c0.084-0.024,0.184-0.032,0.292-0.032
						c0.306,0,0.684,0.07,0.989,0.07c0.284,0,0.507-0.062,0.553-0.299c-0.083,0.023-0.181,0.031-0.287,0.031
						C41.502,76.125,41.123,76.054,40.815,76.054L40.815,76.054z"/>
				</g>
				<g>
					<path fill="#FFFFFF" d="M55.634,66.765c0.004-0.144,0.039-0.25,0.102-0.317c0.041-0.046,0.099-0.078,0.172-0.098
						c-0.011,0.035-0.021,0.072-0.031,0.107c-0.073,0.262-0.106,0.308-0.225,0.308C55.646,66.765,55.64,66.765,55.634,66.765z"/>
					<path fill="#FFFFFF" d="M56.112,66.135c-0.485,0-0.708,0.266-0.663,0.791c0.078,0.021,0.144,0.029,0.202,0.029
						c0.463,0,0.336-0.597,0.583-0.814C56.192,66.138,56.151,66.135,56.112,66.135L56.112,66.135z"/>
				</g>
				<g>
					<path fill="#FFFFFF" d="M50.663,66.424c0.215-0.174,0.59-0.338,0.921-0.358c-0.015,0.158-0.048,0.228-0.071,0.257
						c-0.018,0.023-0.042,0.045-0.138,0.045c0,0-0.099-0.004-0.15-0.01c-0.066-0.006-0.135-0.012-0.203-0.012
						C50.886,66.346,50.767,66.372,50.663,66.424z"/>
					<path fill="#FFFFFF" d="M51.657,65.874c-0.727,0-1.779,0.682-1.183,1.053c0.138-0.327,0.342-0.391,0.548-0.391
						c0.122,0,0.244,0.021,0.353,0.021c0.231,0,0.407-0.094,0.407-0.678C51.741,65.875,51.7,65.874,51.657,65.874L51.657,65.874z"/>
				</g>
				<g>
					<path fill="#FFFFFF" d="M1.432,51.047c-0.34,0.352-0.16,0.791,0.264,1.05C1.651,51.706,1.789,51.127,1.432,51.047z"/>
					<path fill="#FFFFFF" d="M1.432,51.047c-0.34,0.352-0.16,0.791,0.264,1.05C1.651,51.706,1.789,51.127,1.432,51.047L1.432,51.047
						z"/>
				</g>
				<g>
					<path fill="#FFFFFF" d="M0.908,49.477c-0.073,0.6,0.062,0.984,0.524,1.048C1.396,50.038,1.261,49.651,0.908,49.477z"/>
					<path fill="#FFFFFF" d="M0.908,49.477c-0.073,0.6,0.062,0.984,0.524,1.048C1.396,50.038,1.261,49.651,0.908,49.477
						L0.908,49.477z"/>
				</g>
				<g>
					<path fill="#FFFFFF" d="M13.551,44.148c-0.397,0.397,0.405,1.513,0.526,0.784C14.061,45.032,13.593,44.108,13.551,44.148z"/>
					<path fill="#FFFFFF" d="M13.555,44.147c-0.001,0-0.002,0-0.003,0.001c-0.304,0.304,0.093,1.024,0.351,1.024
						c0.08,0,0.146-0.068,0.175-0.24c-0.001,0.005-0.003,0.008-0.006,0.008C14.016,44.94,13.61,44.147,13.555,44.147L13.555,44.147z
						"/>
				</g>
				<g>
					<path fill="#FFFFFF" d="M63.332,28.605c-0.146-0.092-0.259-0.188-0.318-0.336C63.159,28.361,63.271,28.458,63.332,28.605z"/>
					<path fill="#FFFFFF" d="M62.78,27.913c-0.044,0.657,0.404,0.82,0.787,1.05C63.609,28.307,63.165,28.142,62.78,27.913
						L62.78,27.913z"/>
				</g>
				<g>
					<path fill="#FFFFFF" d="M67.754,25.819c-0.389,0.051-0.238,0.634-0.26,1.048C67.883,26.82,67.733,26.234,67.754,25.819z"/>
					<path fill="#FFFFFF" d="M67.754,25.819c-0.389,0.051-0.238,0.634-0.26,1.048C67.883,26.82,67.733,26.234,67.754,25.819
						L67.754,25.819z"/>
				</g>
				<g>
					<path fill="#FFFFFF" d="M45.762,78.709c1.341-0.137,2.699-0.265,3.403-1.047C48.178,77.995,45.879,78.383,45.762,78.709z"/>
					<path fill="#FFFFFF" d="M49.166,77.665c-0.987,0.33-3.286,0.719-3.403,1.045C47.103,78.573,48.461,78.448,49.166,77.665
						L49.166,77.665z"/>
				</g>
				<g>
					<path fill="#FFFFFF" d="M70.375,56.456c0.234-0.465,0.631-0.768,0.784-1.311C70.511,55.043,70.011,56.405,70.375,56.456z"/>
					<path fill="#FFFFFF" d="M71.09,55.14c-0.613,0-1.066,1.267-0.715,1.315c0.234-0.465,0.631-0.77,0.784-1.312
						C71.136,55.141,71.113,55.14,71.09,55.14L71.09,55.14z"/>
				</g>
				<g>
					<path fill="#FFFFFF" d="M72.731,55.409c0.137-0.388,0.386-0.66,0.524-1.049C72.614,54.108,72.387,55.538,72.731,55.409z"/>
					<path fill="#FFFFFF" d="M73.107,54.331c-0.347,0-0.537,0.52-0.537,0.838C72.571,54.848,72.761,54.331,73.107,54.331
						L73.107,54.331z M72.571,55.168c0,0.144,0.039,0.248,0.119,0.248C72.609,55.417,72.571,55.312,72.571,55.168L72.571,55.168z"/>
				</g>
				<g>
					<path fill="#FFFFFF" d="M24.814,15.606c0.049,0.686-2.045,0.549-1.047,1.31c0.234-0.764,0.962-0.076,1.047-0.521
						C23.889,16.317,25.921,15.868,24.814,15.606z"/>
					<path fill="#FFFFFF" d="M24.814,15.606c0.049,0.686-2.045,0.549-1.047,1.31c0.099-0.321,0.285-0.386,0.473-0.386
						c0.126,0,0.254,0.029,0.357,0.029c0.109,0,0.191-0.032,0.216-0.165C23.889,16.317,25.921,15.868,24.814,15.606L24.814,15.606z"
						/>
				</g>
				<g>
					<path fill="#FFFFFF" d="M56.799,74.29c0.046-0.045,0.086-0.095,0.113-0.151c0.401-0.179,0.783-0.38,1.151-0.591
						C57.657,73.809,57.239,74.064,56.799,74.29z M61.206,71.603c0.2-0.108,0.403-0.215,0.611-0.313l0.06-0.026l0.029-0.062
						c0.549-1.111,1.453-1.85,2.41-2.631c0.94-0.768,1.911-1.561,2.5-2.734c0.042,0.006,0.083,0.008,0.125,0.008
						c0.556,0,0.888-0.51,1.066-0.782c0.006-0.008,0.011-0.019,0.016-0.022c0,0,0.146-0.061,0.172-0.068
						c-0.098,0.299-0.604,1.021-0.845,1.316c-0.498,0.564-1.277,1.19-2.103,1.854c-1.253,1.008-2.548,2.049-3.122,3.084
						C61.804,71.334,61.499,71.463,61.206,71.603z"/>
					<path fill="#FFFFFF" d="M67.372,65.943c-0.06,0.081-0.116,0.154-0.163,0.212c-0.284,0.322-0.662,0.666-1.089,1.026
						c0.304-0.343,0.579-0.72,0.806-1.146c0.004,0,0.009,0,0.013,0C67.1,66.036,67.244,66,67.372,65.943 M68.279,64.76
						c-0.061,0-0.147,0.021-0.264,0.074c-0.006-0.035-0.015-0.049-0.029-0.049c-0.101,0-0.414,0.868-1.047,0.868
						c-0.072,0-0.149-0.012-0.23-0.036c-1.107,2.387-3.821,3.166-4.975,5.5c-1.773,0.846-3.152,2.088-4.977,2.879
						c-0.054,0.353-1.087,0.487,0,0.525c1.927-0.955,3.347-2.415,5.498-3.145c0.889-1.695,3.951-3.512,5.238-4.975
						C67.523,66.372,68.789,64.76,68.279,64.76L68.279,64.76z"/>
				</g>
				<g>
					<path fill="#FFFFFF" d="M15.647,71.642c0.394-0.004,1.071,0.972,1.311,0.261C16.289,72.185,16.042,70.776,15.647,71.642z"/>
					<path fill="#FFFFFF" d="M15.915,71.357c-0.086,0-0.172,0.076-0.268,0.285c0.001,0,0.001,0,0.002,0
						c0.289,0,0.728,0.521,1.036,0.521c0.113,0,0.208-0.067,0.272-0.26c-0.062,0.026-0.122,0.038-0.177,0.038
						C16.384,71.941,16.152,71.357,15.915,71.357L15.915,71.357z"/>
				</g>
				<g>
					<path fill="#FFFFFF" d="M67.148,69.198c0.061-0.373,0.227-0.834,0.501-1.244c0.292-0.437,0.647-0.719,1.015-0.811
						c0.271,1.146-0.2,1.359-0.789,1.626C67.629,68.879,67.364,69,67.148,69.198z"/>
					<path fill="#FFFFFF" d="M68.523,67.393c0.145,0.809-0.184,0.957-0.726,1.203c-0.108,0.049-0.222,0.102-0.336,0.16
						c0.083-0.233,0.199-0.479,0.347-0.697C67.942,67.858,68.191,67.547,68.523,67.393 M68.804,66.926
						c-1.278,0.125-2.062,2.121-1.833,2.885C67.389,68.534,69.461,69.299,68.804,66.926L68.804,66.926z"/>
				</g>
				<g>
					<path fill="#FFFFFF" d="M60.686,69.024h-0.524c0.079,0.514-0.354,0.518-0.522,0.787C61.564,69.37,63.39,66.314,60.686,69.024z"
						/>
					<path fill="#FFFFFF" d="M62.017,67.917c-0.114,0-0.518,0.293-1.331,1.107h-0.524c0.079,0.514-0.354,0.518-0.522,0.787
						C60.985,69.502,62.283,67.917,62.017,67.917L62.017,67.917z"/>
				</g>
				<g>
					<path fill="#FFFFFF" d="M64.611,65.618c1.015-0.207,1.167-1.277,1.835-1.832C65.435,63.997,65.283,65.066,64.611,65.618z"/>
					<path fill="#FFFFFF" d="M66.446,63.786c-1.011,0.211-1.163,1.28-1.835,1.832C65.625,65.411,65.778,64.338,66.446,63.786
						L66.446,63.786z"/>
				</g>
				<g>
					<path fill="#FFFFFF" d="M69.588,62.741c0.494-0.31,1.591-1.359,1.047-1.834C70.395,61.411,69.175,63.276,69.588,62.741z"/>
					<path fill="#FFFFFF" d="M70.635,60.907c-0.21,0.44-1.173,1.93-1.13,1.93c0.006,0,0.032-0.028,0.083-0.096
						C70.083,62.431,71.179,61.381,70.635,60.907L70.635,60.907z"/>
				</g>
				<g>
					<path fill="#FFFFFF" d="M71.159,58.288C72.248,56.817,70.726,57.538,71.159,58.288L71.159,58.288z"/>
					<path fill="#FFFFFF" d="M71.483,57.434c-0.175,0-0.574,0.421-0.325,0.854C71.621,57.663,71.613,57.434,71.483,57.434
						L71.483,57.434z"/>
				</g>
				<g>
					<path fill="#FFFFFF" d="M72.208,55.667c0.279,0.67-1.127,0.918-0.264,1.312C71.939,56.584,72.917,55.909,72.208,55.667z"/>
					<path fill="#FFFFFF" d="M72.208,55.667c0.279,0.67-1.127,0.918-0.264,1.312C71.939,56.584,72.917,55.909,72.208,55.667
						L72.208,55.667z"/>
				</g>
				<g>
					<path fill="#FFFFFF" d="M18.266,53.836C16.722,50.657,17.32,54.299,18.266,53.836L18.266,53.836z"/>
					<path fill="#FFFFFF" d="M17.395,52.52c-0.052,0-0.075,0.061-0.075,0.156C17.319,52.581,17.343,52.52,17.395,52.52L17.395,52.52
						z M17.319,52.676c0,0.355,0.332,1.201,0.776,1.201C17.651,53.877,17.319,53.034,17.319,52.676L17.319,52.676z"/>
				</g>
				<g>
					<path fill="#FFFFFF" d="M17.219,52.002c-0.527-1.305-0.727-2.94-1.572-3.926C15.983,49.575,16.481,50.907,17.219,52.002z"/>
					<path fill="#FFFFFF" d="M15.647,48.079c0.336,1.496,0.834,2.828,1.572,3.926C16.692,50.698,16.493,49.062,15.647,48.079
						L15.647,48.079z"/>
				</g>
				<g>
					<path fill="#FFFFFF" d="M15.146,45.315c-0.466-1.841-0.707-3.809-0.743-5.821c0.102,1.633,0.352,3.268,0.611,4.959
						C15.059,44.741,15.103,45.027,15.146,45.315z M15.536,30.558c1.048-3.851,2.788-7.388,5.077-9.968
						C18.742,23.338,16.763,26.541,15.536,30.558z"/>
					<path fill="#FFFFFF" d="M21.932,19.013c-6.646,5.76-9.824,19.17-6.285,28.54c-0.456-3.795-1.326-7.357-1.046-10.999
						C15.216,28.572,19.005,23.227,21.932,19.013L21.932,19.013z"/>
				</g>
				<g>
					<path fill="#FFFFFF" d="M60.162,23.725c0.133,0.187,1.119,1.277,0.784,0.784C60.507,23.867,59.983,23.46,60.162,23.725z"/>
					<path fill="#FFFFFF" d="M60.135,23.643c-0.018,0-0.012,0.026,0.026,0.082c0.109,0.152,0.789,0.911,0.849,0.911
						c0.013,0-0.004-0.037-0.065-0.127C60.6,24.002,60.201,23.643,60.135,23.643L60.135,23.643z"/>
				</g>
				<g>
					<path fill="#FFFFFF" d="M61.471,20.06C61.818,21.357,62.707,20.471,61.471,20.06L61.471,20.06z"/>
					<path fill="#FFFFFF" d="M61.471,20.06c0.135,0.505,0.352,0.679,0.494,0.679C62.188,20.739,62.226,20.311,61.471,20.06
						L61.471,20.06z"/>
				</g>
				<g>
					<path fill="#FFFFFF" d="M34.593,4.972c-0.067,0-0.138-0.011-0.209-0.021c-0.042-0.006-0.085-0.012-0.127-0.017
						c0.395-0.213,1.011-0.377,1.429-0.413c-0.175,0.096-0.476,0.238-0.991,0.436C34.669,4.967,34.636,4.972,34.593,4.972z"/>
					<path fill="#FFFFFF" d="M35.839,4.325c-0.661,0-2.333,0.473-2.123,1.07c0.013-0.14,0.032-0.27,0.185-0.27
						c0.022,0,0.047,0.003,0.076,0.009c0.045-0.013,0.093-0.018,0.144-0.018c0.152,0,0.321,0.045,0.472,0.045
						c0.06,0,0.118-0.007,0.17-0.027C36.27,4.555,36.301,4.325,35.839,4.325L35.839,4.325z"/>
				</g>
				<g>
					<path fill="#FFFFFF" d="M28.479,2.513c-0.31,0.128-0.594,0.281-0.785,0.526C28.042,3.081,29.136,2.628,28.479,2.513z"/>
					<path fill="#FFFFFF" d="M28.479,2.513c-0.31,0.128-0.594,0.281-0.785,0.526c0.015,0.002,0.031,0.002,0.049,0.002
						C28.134,3.042,29.108,2.624,28.479,2.513L28.479,2.513z"/>
				</g>
			</g>
			<g>
				<path fill="#FFFFFF" d="M30.574,4.085c-0.056,0.072-0.116,0.142-0.181,0.212C30.492,4.272,30.572,4.195,30.574,4.085z"/>
				<path fill="#FFFFFF" d="M30.574,4.085c-0.056,0.072-0.116,0.142-0.181,0.212C30.492,4.272,30.572,4.195,30.574,4.085
					L30.574,4.085z"/>
			</g>
			<g>
				<path fill="#FFFFFF" d="M24.477,4.888c0.008-0.032,0.02-0.062,0.031-0.092c-0.097,0.05-0.193,0.103-0.29,0.154
					C24.303,4.93,24.39,4.909,24.477,4.888z"/>
				<path fill="#FFFFFF" d="M24.508,4.796c-0.097,0.05-0.193,0.103-0.29,0.154c0.085-0.021,0.172-0.042,0.259-0.062
					C24.485,4.856,24.497,4.826,24.508,4.796L24.508,4.796z"/>
			</g>
			<g>
				<path fill="#FFFFFF" d="M29.898,11.546c-0.013,0.067,0.08,0.137,0.333,0.137c0.016,0,0.032,0,0.051,0
					c0.014-0.081,0.024-0.167,0.029-0.265c-0.033-0.005-0.067-0.008-0.1-0.008C30.035,11.411,29.913,11.48,29.898,11.546z"/>
				<path fill="#FFFFFF" d="M30.211,11.411c-0.177,0-0.299,0.069-0.313,0.136c-0.013,0.067,0.08,0.137,0.333,0.137
					c0.016,0,0.032,0,0.051,0c0.014-0.081,0.024-0.167,0.029-0.265C30.278,11.414,30.244,11.411,30.211,11.411L30.211,11.411z"/>
			</g>
			<g>
				<path fill="#FFFFFF" d="M30.15,12.047c0.067-0.079,0.124-0.196,0.161-0.366c-0.009,0.002-0.019,0.002-0.029,0.002
					C30.254,11.833,30.209,11.951,30.15,12.047z"/>
				<path fill="#FFFFFF" d="M30.311,11.681c-0.009,0.002-0.019,0.002-0.029,0.002c-0.027,0.149-0.072,0.268-0.132,0.364
					C30.217,11.968,30.274,11.851,30.311,11.681L30.311,11.681z"/>
			</g>
			<g>
				<path fill="#FFFFFF" d="M39.576,75.163c-15.858,0-25.573-10.233-29.013-14.636l-0.324,0.192
					c2.508,5.789,6.542,9.22,11.818,12.423c-0.873-0.251-1.763-0.794-2.573-1.288l-0.105-0.064
					c-1.199-0.729-2.332-1.422-3.361-1.422c-0.123,0-0.243,0.01-0.361,0.032l0.019,0.122c-0.042-0.053-0.07-0.102-0.074-0.146
					c-0.005-0.055,0.069-0.104,0.132-0.135l0.201-0.102L15.8,69.958c-0.3-0.406-0.633-0.453-0.857-0.453
					c-0.102,0-0.203,0.012-0.307,0.021c-0.091,0.012-0.179,0.021-0.267,0.021c-0.178,0-0.308-0.045-0.434-0.147l-0.345-0.282
					l0.02,0.254C5.194,61.767,0.38,50.956,0.38,39.608c0-12.625,5.993-24.19,15.483-31.62l0.118,0.203
					c0.287-0.113,0.63-0.348,0.962-0.576c0.324-0.222,0.723-0.496,0.913-0.521c-1.949,1.1-3.465,2.661-4.932,4.17
					c-0.608,0.626-1.217,1.253-1.856,1.849l0.214,0.309c1.183-0.59,2.62-1.908,4.009-3.182c0.668-0.613,1.303-1.195,1.906-1.697
					c0.149,0.141,0.329,0.211,0.535,0.211c0.514,0,1.142-0.439,1.937-0.996c0,0,1.93-1.335,2.19-1.514
					c-0.31,0.26-0.602,0.546-0.86,0.863l0.231,0.291c0.898-0.44,1.771-0.904,2.644-1.369c0.717-0.381,1.445-0.769,2.191-1.144
					l0.215,0.143c0.123,0.082,0.285,0.123,0.482,0.123c0.73,0,1.903-0.579,2.34-1.138c0.315-0.005,0.596-0.04,0.851-0.093
					l-0.121,0.049l0.031,0.154c0.023,0.115,0.082,0.21,0.164,0.276c-0.806,0.763-2.162,1.565-3.588,2.411
					c-2.056,1.218-4.386,2.599-5.701,4.227l0.267,0.268c2.531-2.031,5.968-3.723,8.832-4.36c-0.142,0.406-0.801,0.707-1.492,1.023
					c-0.446,0.204-0.907,0.414-1.281,0.675L26.84,8.797c-0.562,0.388-1.144,0.789-1.387,1.42c-0.87,0.268-1.507,0.765-2.125,1.247
					c-0.545,0.425-1.06,0.827-1.727,1.086l0.125,0.359c1.414-0.435,2.855-1.349,4.382-2.317c1.38-0.876,2.801-1.777,4.296-2.383
					c-0.797,0.753-1.775,1.346-2.727,1.924c-1.167,0.708-2.373,1.44-3.27,2.47l0.258,0.276c0.696-0.526,1.593-0.89,2.462-1.241
					c1.256-0.509,2.55-1.033,3.342-2.072c-0.039,0.079-0.073,0.166-0.084,0.261l-0.04,0.353l0.315-0.163
					c0.178-0.092,0.357-0.184,0.542-0.272c-0.125,0.076-0.251,0.152-0.377,0.229c-2.11,1.277-4.292,2.598-5.895,4.463l0.188,0.211
					c-0.701,0.458-1.327,1.128-1.907,1.75c-0.303,0.325-0.596,0.64-0.883,0.904l-0.145,0.134c0,0,0.149,0.149,0.153,0.153
					c-1.143,0.338-2.063,1.572-2.957,2.771c-0.16,0.215-0.319,0.428-0.478,0.633c-3.793,4.911-5.72,9.936-6.062,15.812l-0.014,0.23
					l0.229-0.031c0.074-0.011,0.135-0.033,0.184-0.065c-0.051,0.187-0.128,0.387-0.207,0.593c-0.235,0.616-0.526,1.377,0.08,1.76
					c0.021,0.188,0.062,0.41,0.111,0.656l-0.121-0.009c-0.039,0.349-0.048,0.72-0.03,1.138c-0.005,0.754,0.022,1.553,0.08,2.368
					c-0.008,0.009-0.022,0.065-0.041,0.119l-0.153,0.459l0.229-0.125c0.703,8.101,4.553,16.097,9.42,19.521
					c0.083,0.061,0.19,0.09,0.317,0.09c0.101,0,0.211-0.021,0.324-0.039c0.152-0.027,0.253-0.049,0.343-0.049
					c0.629,0.281,1.031,0.734,1.419,1.174c0.33,0.371,0.642,0.725,1.016,0.933c2.371,1.312,7.107,2.498,10.559,2.644
					c0.292,0.012,0.582,0.019,0.871,0.019c6.362,0,11.908-2.884,16.954-6.015c0.016,0.039,0.024,0.107,0.03,0.154
					c0.009,0.068,0.019,0.141,0.036,0.203l0.138,0.479c-0.693,0.474-1.262,0.82-1.697,1.044c0.024-0.066,0.053-0.134,0.072-0.169
					l-0.163,0.094v-0.381c-0.344,0-4.072,1.74-4.838,2.4c-1.491,1.291-4.089,2.373-6.178,2.572l-0.291,0.028l0.143,0.254
					c0.185,0.328,0.473,0.495,0.858,0.495c0.503,0,1.08-0.282,1.637-0.555c0.322-0.158,0.625-0.308,0.863-0.371
					c0.059-0.016,0.185-0.024,0.352-0.039c0.51-0.043,1.329-0.113,1.888-0.406c0.054,0.055,0.12,0.081,0.199,0.081
					c0.091,0,0.169-0.04,0.252-0.081c0.091-0.046,0.163-0.078,0.237-0.086c0.033,0.324-0.115,0.438-0.328,0.598
					c-0.21,0.159-0.472,0.357-0.483,0.793l-0.006,0.246l0.24-0.059c1.309-0.311,2.588-0.766,3.876-1.381
					c-1.57,1.125-3.567,1.783-5.54,2.322l-0.262,0.07l0.157,0.223c0.179,0.252,0.402,0.381,0.663,0.381
					c0.291,0,0.571-0.155,0.842-0.309c0.11-0.062,0.228-0.126,0.344-0.175c-0.005,0.06,0.001,0.112,0.015,0.163
					c0.042,0.152,0.161,0.268,0.301,0.299c-0.175,0.096-0.395,0.188-0.544,0.255c-0.338,0.146-0.657,0.284-0.82,0.451l-0.435,0.446
					l0.611-0.129c2.142-0.455,4.327-1.307,6.413-2.461l-0.05,0.06c-0.168,0.192-0.448,0.303-0.745,0.418
					c-0.459,0.181-0.979,0.38-1.126,0.97l-0.08,0.316l0.316-0.092c0.525-0.146,1.854-0.812,1.99-1.309
					c0.031-0.115,0.004-0.23-0.074-0.312L53.11,69.56c3.022-1.692,5.828-4.021,7.978-6.704l0.142-0.178l-0.2-0.107
					c-0.103-0.057-0.211-0.086-0.321-0.086c-0.398,0-0.651,0.385-0.874,0.725c-0.107,0.164-0.219,0.334-0.329,0.433
					c-0.206,0.185-0.605,0.595-0.913,0.909c-0.114,0.117-0.214,0.222-0.286,0.293c-0.009-0.02-0.019-0.041-0.027-0.061
					c-0.079-0.18-0.186-0.422-0.417-0.422h-0.048l-0.107,0.041c-0.009,0.006-0.018,0.01-0.026,0.016
					c0.293-0.553,0.631-1.088,1.044-1.555l0.089-0.102l-0.119-0.217l-0.19-0.053c-0.186,0-0.354,0.178-0.61,0.441
					c-0.228,0.236-0.53,0.555-0.791,0.639c-0.135-0.258,0.032-0.416,0.492-0.769c0.454-0.347,1.012-0.771,0.935-1.521
					c0.084-0.035,0.169-0.068,0.255-0.103c0.441-0.175,0.898-0.353,1.234-0.666l0.061-0.058v-0.729
					c0.062,0.026,0.124,0.043,0.184,0.043c0.312,0,0.423-0.343,0.512-0.617c0.044-0.135,0.102-0.312,0.146-0.356
					c0.005,0.012,0.054,0.041,0.137,0.136l0.218,0.248l0.105-0.312c0.333-0.99,0.837-1.848,1.324-2.675
					c0.426-0.725,0.866-1.473,1.201-2.317c0.2,0.136,0.379,0.203,0.544,0.203c0.562,0,0.74-0.695,0.927-1.432l0.081-0.312
					c0.237-0.877,0.523-1.461,1.15-1.461h0.131l0.138-0.119c0.264-0.688-0.106-0.871-0.327-0.979
					c-0.153-0.073-0.222-0.108-0.208-0.252c0.566-0.243,1.014-1.149,1.21-2.472c0.1-0.672,0.127-1.412,0.051-2.072
					c0.063,0.15,0.157,0.282,0.303,0.371l0.418,0.254l-0.137-0.471c-0.09-0.307-0.019-0.408,0.088-0.562
					c0.108-0.156,0.244-0.353,0.179-0.723l-0.027-0.158h-0.16c-0.308,0-0.466-0.091-0.679-0.229l-0.607-0.4l0.333,0.646
					c0.06,0.115,0.093,0.274,0.119,0.442c-0.119-0.377-0.292-0.685-0.527-0.876c0.288-1.74,0.017-3.908-0.295-5.841
					c0.177,0.609,0.429,1.167,0.717,1.581l0.397,0.572l-0.052-0.695c-0.146-1.931-0.315-2.601-0.652-3.934l-0.296-1.182
					c0,0-0.218,0.654-0.224,0.672c0.116-0.735,0.023-1.588-0.265-2.487c0.045,0.031,0.101,0.054,0.169,0.064l0.147,0.023
					l0.058-0.138c0.14-0.333,0.022-0.758-0.146-1.011c-0.117-0.176-0.252-0.27-0.392-0.27c-0.067,0-0.206,0.023-0.291,0.201
					c-0.047-0.097-0.096-0.193-0.147-0.291c-0.755-1.434-1.825-2.611-2.801-3.123c0.092-0.055,0.153-0.122,0.188-0.205
					c0.112-0.262-0.086-0.53-0.336-0.871c-0.05-0.068-0.102-0.14-0.154-0.213c0.354,0.188,0.762,0.338,1.265,0.397l0.313,0.037
					l-0.113-0.294c-0.604-1.57-1.856-2.496-3.067-3.391c-0.538-0.397-1.089-0.805-1.576-1.267c2.995,0.495,5.255,3.591,6.93,5.886
					l0.343,0.47V27.39c0-1.043-0.48-2.514-1.778-3.779c0.508,0.33,0.881,0.98,1.27,1.657c0.521,0.909,1.06,1.848,1.935,2.239
					c-0.065,0.429,0.049,0.688,0.151,0.919c0.075,0.17,0.14,0.317,0.139,0.534l0.364,0.078c0.25-0.572-0.129-2.465-0.654-3.268
					c-0.198-0.303-0.417-0.457-0.648-0.457c-0.009,0-0.019,0.001-0.028,0.001c-0.003-0.029-0.007-0.062-0.011-0.095
					c-0.071-0.615-0.203-1.762-1.154-1.944l-0.197-0.038c0,0-0.03,0.218-0.031,0.228c-0.24-0.296-0.423-0.744-0.612-1.209
					c-0.179-0.438-0.363-0.89-0.613-1.256c-0.498-0.737-1.107-1.214-1.645-1.634c-0.511-0.4-0.953-0.745-1.22-1.231l-0.052-0.095
					l-0.108-0.003c-1.422-0.049-2.29-0.627-3.209-1.237c-0.446-0.297-0.907-0.604-1.434-0.842l-0.09-0.041l-0.085,0.051
					c-0.126,0.074-0.294,0.196-0.291,0.387c0.004,0.224,0.223,0.343,0.478,0.48c0.177,0.096,0.31,0.177,0.397,0.255l-0.402-0.19
					c-1.44-0.687-2.48-1.184-4.244-1.481c-0.298,0.049-0.451,0.237-0.445,0.466c-0.24-0.062-0.487-0.166-0.758-0.28l-0.179-0.076
					c-0.539-0.224-1.128-0.442-1.88-0.442c-0.215,0-0.438,0.021-0.667,0.06c-1.536-0.855-3.007-2.78-3.985-4.059
					c-0.35-0.457-0.647-0.846-0.88-1.103c-0.6-1.345-0.69-3.446,0.532-4.996c0.034-0.025,0.199-0.053,0.298-0.069
					c0.218-0.036,0.406-0.067,0.497-0.204c0.131-0.199,0.141-0.477,0.15-0.746c0.007-0.214,0.015-0.457,0.093-0.542
					c0.614-0.664,1.497-1.005,2.35-1.335c0.532-0.206,1.036-0.401,1.451-0.666c0.016,0.041,0.024,0.108,0.029,0.153
					c0.009,0.071,0.018,0.141,0.035,0.203l0.065,0.236l0.212-0.122c0.641-0.367,1.301-0.634,1.962-0.796
					C68.665,6.029,80.556,21.866,80.556,39.61c0,2.689-0.267,5.373-0.792,7.977c-0.134,0.123-0.351,0.379-0.419,0.713
					c-0.088,0.443-0.065,0.805-0.045,1.121l0.01,0.187c-0.077,0.274-0.164,0.593-0.253,0.909c-0.005-0.001-0.011-0.002-0.016-0.003
					c-0.079-0.017-0.158-0.026-0.22-0.026h-0.083l-0.13,0.081c-0.109,0.132-0.108,0.341-0.097,0.729
					c0.005,0.201,0.016,0.562-0.033,0.678c-0.013-0.016-0.057-0.043-0.128-0.105L78,51.542l0.039,0.479
					c0.069,0.84-0.079,1.731-0.466,2.812c-0.139,0.338-0.283,0.674-0.432,1.01l0.088-0.317l-0.409,0.249
					c-0.887,0.539-1.245,1.578-1.592,2.584c-0.123,0.355-0.249,0.721-0.397,1.059c-0.155-0.545,0.117-1.059,0.423-1.638
					c0.382-0.726,0.816-1.546,0.254-2.466l-0.168-0.275l-0.159,0.28c-0.376,0.663-0.712,1.281-0.947,1.999
					c0.002-0.152,0.088-0.352,0.231-0.641c0.164-0.332,0.334-0.676,0.287-1.03l-0.014-0.103c0.172-0.109,0.31-0.317,0.385-0.598
					c0.062-0.22,0.085-0.512-0.036-0.671L75.03,54.2l-0.165-0.039h-0.042l-0.079,0.028l-0.079,0.037l-0.023,0.084
					c-0.02,0.071-0.086,0.112-0.202,0.177c-0.285,0.16-0.544,0.368-0.32,0.986l0.03,0.083l0.083,0.03
					c0.044,0.017,0.087,0.026,0.128,0.035l-0.132,0.178c-0.306,0.416-0.62,0.844-0.982,1.211c0.198-1.172,0.677-2.372,1.181-3.635
					c0.739-1.854,1.577-3.955,1.633-6.342L75.7,46.946c-0.775,1.602-1.335,3.449-1.876,5.236c-0.153,0.505-0.306,1.011-0.464,1.511
					c-0.108,0.037-0.208,0.056-0.305,0.073c-0.288,0.052-0.503,0.119-0.638,0.428c-0.021-0.385,0.154-0.779,0.346-1.216
					c0.233-0.526,0.497-1.123,0.416-1.784l-0.372-0.023c-0.324,1.242-0.924,1.896-1.504,2.524c-0.631,0.688-1.234,1.343-1.365,2.642
					l-0.023-0.082l-0.228,0.359c-0.623,0.983-1.332,1.902-2.059,2.787c1.894-2.668,3.47-5.723,3.458-8.969l-0.368-0.066
					c-0.054,0.143-0.114,0.291-0.175,0.441c-0.332,0.814-0.704,1.729-0.437,2.595c-0.842,0.214-1.617,1.788-1.744,3.152
					c-0.651,0.147-0.657,0.616-0.662,0.997c-0.003,0.221-0.006,0.447-0.114,0.644c-0.424,0.772-1.086,1.479-1.726,2.165
					c-0.966,1.033-1.879,2.01-1.962,3.15l-0.04,0.548c-0.112,0.159-0.221,0.319-0.329,0.483c-0.005-0.015-0.011-0.025-0.017-0.041
					c-0.06-0.144-0.159-0.379-0.47-0.385l-0.218-0.004l0.027,0.219c0.017,0.137-0.042,0.248-0.099,0.356
					c-0.04,0.077-0.084,0.162-0.089,0.251l-0.019,0.02c-3.893,3.75-9.595,5.849-15.109,7.877l-0.919,0.34l0.358,0.201
					c0.239,0.135,0.276,0.197,0.279,0.203c-0.005-0.006-0.015-0.01-0.029-0.01c-0.064,0-0.209,0.055-0.321,0.096
					c-0.423,0.151-1.044,0.379-1.08,0.959C43.73,74.981,41.628,75.163,39.576,75.163z M27.234,70.609
					c-0.208,0-0.414,0.021-0.625,0.062l-0.662,0.129l0.633,0.234c0.498,0.184,0.99,0.375,1.481,0.565
					c2.631,1.021,5.353,2.077,9.08,2.077c0.253,0,0.509-0.004,0.771-0.016l1.479,0.002l0.013-0.179
					c0.011-0.146-0.025-0.262-0.107-0.351c-0.093-0.102-0.237-0.149-0.44-0.149c-0.104,0-0.221,0.015-0.337,0.026l-0.104,0.014
					c-0.106,0.014-0.209,0.023-0.301,0.023c-0.063,0-0.11-0.006-0.138-0.018c-0.504-0.197-1.158-0.293-2-0.293
					c-0.203,0-0.414,0.004-0.627,0.016c-0.231-0.191-0.496-0.346-0.752-0.492c-0.277-0.158-0.539-0.311-0.755-0.504l-0.07-0.059
					l-0.091,0.018c-0.354,0.062-0.709,0.096-1.056,0.096c-1.054,0-1.953-0.277-2.858-0.59l-0.185-0.062
					C28.776,70.875,28.013,70.609,27.234,70.609z M18.396,65.752c0.27,0.268,0.555,0.586,0.858,0.926
					c0.668,0.744,1.426,1.591,2.304,2.234c1.061,0.78,2.623,1.82,3.939,1.82c0.365,0,0.694-0.08,0.979-0.236l0.298-0.164
					l-0.297-0.168c-1.564-0.879-3.206-1.935-4.793-2.951l-0.696-0.447c-0.905-0.577-2.124-1.223-2.389-1.325L18.396,65.752z
					 M15.737,63.187c-0.092,0.217-0.062,0.467,0.083,0.688c0.149,0.227,0.396,0.379,0.612,0.379c0.182,0,0.396-0.115,0.45-0.438
					l0.031-0.188l-0.188-0.03c-0.134-0.021-0.214-0.104-0.314-0.214c-0.111-0.115-0.237-0.248-0.45-0.309l-0.16-0.043L15.737,63.187
					z M19.574,61.448c-0.12,0-0.232,0.023-0.335,0.069l-0.341,0.151l0.323,0.188c0.443,0.255,0.775,0.62,1.127,1.007
					c0.358,0.396,0.728,0.802,1.227,1.089l0.483,0.276l-0.212-0.515C21.53,62.948,20.506,61.448,19.574,61.448z M65.229,55.849
					c-0.489,1.014-1.247,2.069-1.98,3.091c-0.835,1.163-1.625,2.264-1.957,3.213l0.341,0.162c0.28-0.454,0.76-0.964,1.224-1.456
					c0.702-0.745,1.365-1.448,1.421-2.028l-0.263-0.058c0.042-0.048,0.085-0.097,0.128-0.146c0.772-0.881,1.647-1.877,1.442-2.739
					l-0.124-0.521L65.229,55.849z M66.536,55.068c-0.06,0.132-0.198,0.324-0.344,0.526c-0.313,0.434-0.636,0.882-0.574,1.234
					c0.022,0.127,0.091,0.229,0.199,0.305l0.268,0.184l0.028-0.322c0.02-0.225,0.253-0.514,0.459-0.769
					c0.255-0.315,0.496-0.615,0.457-0.906c-0.012-0.09-0.058-0.22-0.208-0.329l-0.189-0.137L66.536,55.068z M73.062,33.05
					c-0.022,0.887-0.045,1.804,0.638,2.106l0.261,0.115l0.01-0.46c0.021-0.882,0.042-1.794-0.638-2.097l-0.261-0.116L73.062,33.05z
					 M23.544,13.452c-0.929,0.723-1.798,1.598-2.548,2.563l-0.304,0.391l0.488-0.087c0.992-0.179,2.011-1.676,2.5-2.396
					c0.072-0.105,0.129-0.19,0.17-0.245l0.072-0.057l0.035-0.109v-0.19l-0.196-0.017h-0.096L23.544,13.452z M11.039,13.773
					c-0.083,0-0.146,0.05-0.227,0.119C10.463,14.078,9.6,14.753,9.526,15.4c-0.028,0.237,0.054,0.449,0.235,0.612l0.23,0.206
					l0.081-0.298c0.074-0.274,0.501-0.89,0.785-1.297c0.377-0.543,0.426-0.612,0.357-0.745l-0.053-0.102L11.039,13.773z
					 M19.394,14.507c-0.026,0.074-0.284,0.231-0.422,0.316c-0.314,0.193-0.586,0.359-0.568,0.612c0.01,0.144,0.114,0.259,0.31,0.344
					l0.199,0.087l0.059-0.209c0.026-0.074,0.283-0.231,0.421-0.315c0.314-0.193,0.586-0.359,0.568-0.612
					c-0.01-0.143-0.114-0.259-0.309-0.344l-0.187-0.082L19.394,14.507z M54.836,62.549c0.415-0.981,1.506-1.852,2.561-2.692
					c0.791-0.63,1.608-1.28,2.131-1.978c0.151-0.2,0.214-0.451,0.276-0.694c0.044-0.177,0.087-0.347,0.159-0.483
					c0.008,0.008,0.017,0.016,0.025,0.021c0.145,0.121,0.258,0.207,0.384,0.207h0.086l0.109-0.09
					c1.563-1.85,2.309-4.166,3.098-6.616c0.223-0.692,0.45-1.397,0.701-2.113c-0.72,6.354-5.125,11.603-8.767,14.21
					c-0.337,0.243-0.654,0.465-0.947,0.665L54.836,62.549z M75.963,58.274c0.126-0.374,0.349-0.75,0.567-1.119l0,0
					C76.347,57.532,76.158,57.904,75.963,58.274z M64.685,47.239c0.088-0.232,0.181-0.469,0.277-0.703
					c0.082,0.068,0.128,0.135,0.133,0.191C65.107,46.866,64.894,47.06,64.685,47.239z M13.574,42.816
					c-0.006-0.269-0.031-0.562-0.058-0.876c-0.023-0.271-0.048-0.559-0.062-0.854C13.568,41.706,13.649,42.346,13.574,42.816z
					 M66.223,35.032l0.141,0.015c0.014-0.038,0.026-0.077,0.039-0.116c-0.046,0.292-0.06,0.602-0.047,0.919
					C66.307,35.56,66.262,35.287,66.223,35.032z M26.318,14.132c0.274-0.09,0.532-0.135,0.8-0.161
					c-0.021,0.04-0.041,0.08-0.062,0.122c-0.079-0.007-0.156-0.011-0.234-0.011C26.65,14.083,26.482,14.1,26.318,14.132z
					 M28.56,12.541c0.216-0.176,0.444-0.362,0.674-0.572c0.088,0.107,0.195,0.204,0.312,0.273c-0.093,0.03-0.196,0.057-0.31,0.085
					C29.03,12.38,28.8,12.439,28.56,12.541z M17.475,6.79c1.064-0.75,2.167-1.45,3.306-2.097c-0.296,0.181-0.585,0.369-0.865,0.564
					l-0.531,0.369l0.646-0.023c1.417-0.052,3.125-0.958,4.933-1.916c1.137-0.603,2.31-1.225,3.444-1.647
					c-0.217,0.414-0.921,0.692-1.66,0.984c-0.52,0.206-1.058,0.418-1.506,0.703c-0.696,0.351-1.45,0.788-2.289,1.329
					C20.99,5.518,19.109,5.963,17.475,6.79z M27.142,4.361c0.344-0.162,0.693-0.319,1.046-0.47
					c-0.239,0.188-0.721,0.356-1.042,0.469C27.144,4.36,27.143,4.36,27.142,4.361z M24.025,3.043c1.378-0.623,2.8-1.171,4.26-1.637
					C26.853,1.918,25.408,2.445,24.025,3.043z"/>
				<path fill="#FFFFFF" d="M51.691,1.308c16.892,4.939,28.681,20.674,28.681,38.3c0,2.645-0.259,5.283-0.77,7.844
					c-0.174,0.211-0.368,0.469-0.438,0.812c-0.093,0.466-0.069,0.84-0.049,1.169l0.007,0.127c-0.063,0.248-0.13,0.496-0.198,0.74
					c-0.035-0.004-0.068-0.006-0.098-0.006c-0.183,0-0.293,0.076-0.366,0.156c-0.154,0.184-0.146,0.447-0.134,0.848
					c0.002,0.078,0.005,0.186,0.005,0.287l-0.561-0.508l0.079,0.959c0.067,0.812-0.078,1.678-0.449,2.713
					c-0.082,0.201-0.166,0.399-0.251,0.602l-0.427,0.259c-0.306,0.188-0.552,0.427-0.756,0.697c0.015-0.349-0.062-0.716-0.294-1.097
					l-0.311-0.508c0.015-0.179-0.003-0.388-0.121-0.543c-0.09-0.119-0.227-0.189-0.373-0.189l-0.124,0.012l-0.077,0.035
					l-0.152,0.062l-0.047,0.168c-0.015,0.019-0.077,0.053-0.118,0.074c-0.034,0.021-0.074,0.042-0.116,0.069
					c0.12-0.312,0.245-0.626,0.372-0.944c0.745-1.867,1.59-3.984,1.646-6.406l-0.722-0.176c-0.782,1.615-1.344,3.473-1.888,5.266
					c-0.143,0.473-0.286,0.943-0.433,1.414c-0.062,0.016-0.124,0.025-0.187,0.037c-0.123,0.021-0.234,0.051-0.332,0.092
					c0.059-0.184,0.146-0.383,0.248-0.614c0.243-0.55,0.519-1.171,0.431-1.884l-0.745-0.051c-0.312,1.195-0.896,1.832-1.459,2.444
					c-0.177,0.19-0.354,0.386-0.522,0.597c0.403-1.205,0.639-2.451,0.634-3.729l-0.735-0.134c-0.053,0.142-0.113,0.287-0.174,0.438
					c-0.307,0.754-0.678,1.662-0.488,2.545c-0.88,0.387-1.539,1.928-1.69,3.125c-0.666,0.215-0.673,0.786-0.677,1.146
					c-0.003,0.204-0.005,0.399-0.09,0.555c-0.412,0.751-1.066,1.45-1.698,2.126c-0.99,1.061-1.925,2.059-2.013,3.27l-0.036,0.494
					c-0.042,0.061-0.083,0.121-0.125,0.182c-0.098-0.127-0.252-0.242-0.502-0.246l-0.436-0.006l0.054,0.433
					c0.009,0.071-0.024,0.142-0.079,0.247c-0.035,0.066-0.079,0.15-0.1,0.248c-2.512,2.408-5.787,4.133-9.277,5.6
					c0.139-0.137,0.238-0.272,0.274-0.408c0.042-0.151,0.017-0.307-0.069-0.43c2.964-1.693,5.711-3.992,7.826-6.634l0.285-0.354
					l-0.4-0.217c-0.131-0.07-0.27-0.106-0.412-0.106c-0.501,0-0.795,0.448-1.032,0.812c-0.101,0.153-0.205,0.312-0.297,0.395
					c-0.213,0.189-0.606,0.595-0.922,0.92c-0.033,0.033-0.064,0.064-0.094,0.096c-0.07-0.125-0.176-0.264-0.342-0.318
					c0.246-0.43,0.523-0.84,0.848-1.207l0.178-0.201l-0.13-0.232c-0.086-0.154-0.24-0.249-0.411-0.249
					c-0.033,0-0.065,0.003-0.097,0.011c0.187-0.244,0.322-0.539,0.32-0.904c0.042-0.018,0.085-0.033,0.127-0.049
					c0.458-0.182,0.932-0.365,1.295-0.703l0.121-0.113v-0.165V59.98c0.446-0.005,0.591-0.451,0.696-0.776
					c0.005-0.017,0.011-0.033,0.017-0.051l0.368,0.42l0.21-0.625c0.328-0.973,0.804-1.781,1.308-2.639
					c0.396-0.672,0.803-1.363,1.13-2.139c0.157,0.078,0.306,0.115,0.452,0.115c0.71,0,0.914-0.801,1.111-1.572l0.08-0.31
					c0.26-0.962,0.522-1.319,0.967-1.319l0.08,0.002l0.27,0.008l0.097-0.252c0.326-0.852-0.198-1.107-0.421-1.219
					c-0.007-0.004-0.015-0.008-0.023-0.012c0.75-0.505,1.036-1.886,1.13-2.515c0.075-0.498,0.108-1.035,0.09-1.554l0.814,0.494
					l-0.274-0.938c-0.064-0.222-0.032-0.267,0.062-0.401c0.115-0.166,0.288-0.416,0.21-0.861l-0.097-0.315h-0.32
					c-0.217,0-0.344-0.076-0.532-0.2l-0.547-0.359c0.15-1.25,0.05-2.674-0.129-4.062c0.051,0.086,0.103,0.167,0.156,0.243
					l0.796,1.145l-0.105-1.39c-0.147-1.948-0.317-2.622-0.658-3.966l-0.138-0.548l-0.316-1.268l-0.044,0.133
					c-0.036-0.321-0.1-0.654-0.192-0.994l0.155,0.024l0.116-0.274c0.167-0.4,0.039-0.886-0.164-1.19
					c-0.194-0.292-0.406-0.354-0.55-0.354c-0.08,0-0.164,0.02-0.242,0.064c-0.009-0.018-0.019-0.035-0.028-0.053
					c-0.714-1.355-1.709-2.489-2.656-3.073c0.019-0.028,0.035-0.06,0.049-0.093c0.106-0.247,0.022-0.484-0.125-0.725
					c0.215,0.069,0.448,0.122,0.704,0.152l0.625,0.075l-0.226-0.589c-0.624-1.622-1.898-2.563-3.132-3.476
					c-0.337-0.249-0.666-0.492-0.978-0.744c2.559,0.825,4.553,3.558,6.065,5.628l0.687,0.941V27.39c0-0.24-0.024-0.501-0.077-0.777
					c0.311,0.413,0.668,0.776,1.108,1.007c-0.031,0.401,0.085,0.664,0.182,0.883c0.072,0.163,0.124,0.28,0.123,0.457l0.728,0.155
					c0.273-0.625-0.108-2.591-0.668-3.447c-0.198-0.303-0.421-0.479-0.665-0.529c-0.075-0.636-0.246-1.847-1.3-2.049l-0.324-0.062
					c-0.132-0.244-0.253-0.539-0.376-0.843c-0.182-0.446-0.371-0.908-0.631-1.289c-0.515-0.763-1.138-1.249-1.687-1.679
					c-0.495-0.387-0.922-0.721-1.17-1.173l-0.104-0.188l-0.216-0.008c-1.369-0.047-2.215-0.609-3.111-1.205
					c-0.453-0.302-0.92-0.612-1.46-0.857l-0.18-0.081l-0.17,0.101c-0.097,0.057-0.39,0.23-0.384,0.555c0,0.006,0,0.012,0,0.018
					c-1.107-0.514-2.079-0.896-3.55-1.146l-0.07-0.012l-0.069,0.015c-0.232,0.047-0.409,0.203-0.486,0.407
					c-0.168-0.058-0.345-0.132-0.535-0.212l-0.181-0.076c-0.532-0.222-1.166-0.457-1.952-0.457c-0.204,0-0.416,0.017-0.632,0.051
					c-1.48-0.852-2.914-2.726-3.87-3.976c-0.329-0.43-0.615-0.805-0.849-1.069c-0.581-1.329-0.657-3.291,0.466-4.754
					c0.053-0.016,0.151-0.032,0.214-0.042c0.239-0.04,0.487-0.081,0.624-0.287c0.161-0.243,0.171-0.549,0.181-0.844
					c0.004-0.138,0.012-0.368,0.042-0.418c0.586-0.632,1.447-0.966,2.28-1.289c0.442-0.171,0.866-0.335,1.241-0.539
					c0.006,0.036,0.013,0.07,0.022,0.103l0.13,0.472l0.425-0.243C50.469,1.72,51.08,1.468,51.691,1.308 M74.146,35.562l0.011-0.571
					l0.004-0.174c0.021-0.9,0.044-1.921-0.751-2.274l-0.521-0.232l-0.013,0.57l-0.004,0.165c-0.022,0.905-0.048,1.931,0.751,2.285
					L74.146,35.562 M65.773,55.86c-0.001-0.005-0.002-0.011-0.004-0.016l-0.248-1.039l-0.464,0.962
					c-0.481,0.998-1.235,2.047-1.963,3.062c-0.844,1.176-1.641,2.285-1.982,3.262l0.683,0.324c0.27-0.438,0.743-0.938,1.2-1.426
					c0.756-0.803,1.41-1.496,1.473-2.141l-0.223-0.049c0.014-0.016,0.027-0.031,0.041-0.047c0.457-0.521,0.947-1.08,1.244-1.643
					c0.046,0.069,0.106,0.131,0.179,0.18l0.536,0.367l0.057-0.646c0.015-0.165,0.238-0.442,0.418-0.665
					c0.281-0.349,0.547-0.679,0.498-1.052c-0.017-0.127-0.08-0.311-0.285-0.457l-0.378-0.273l-0.191,0.428
					c-0.052,0.114-0.19,0.307-0.325,0.493C65.948,55.609,65.856,55.734,65.773,55.86 M29.678,4.166
					c0.017,0.08,0.045,0.152,0.084,0.217c-0.802,0.711-2.08,1.468-3.421,2.263c-2.07,1.226-4.416,2.616-5.751,4.271l0.534,0.535
					c2.335-1.874,5.447-3.457,8.153-4.176c-0.27,0.179-0.645,0.35-1.012,0.518c-0.453,0.207-0.922,0.421-1.312,0.693l-0.22,0.152
					c-0.562,0.388-1.142,0.788-1.421,1.422c-0.858,0.283-1.488,0.774-2.099,1.251c-0.534,0.417-1.038,0.81-1.679,1.06l0.25,0.717
					c1.438-0.442,2.89-1.363,4.427-2.338c0.898-0.57,1.813-1.15,2.752-1.652c-0.441,0.298-0.907,0.581-1.383,0.869
					c-1.179,0.716-2.398,1.456-3.315,2.508l0.516,0.553c0.676-0.511,1.522-0.854,2.419-1.217c0.339-0.137,0.682-0.276,1.017-0.425
					c-1.257,0.846-2.447,1.783-3.428,2.924l0.182,0.205c-0.7,0.469-1.32,1.133-1.897,1.75c-0.305,0.327-0.593,0.636-0.873,0.895
					L21.91,17.43l0.082,0.082c-1.065,0.456-1.926,1.61-2.763,2.732c-0.159,0.214-0.318,0.427-0.476,0.631
					c-3.818,4.943-5.756,10.001-6.101,15.917l-0.027,0.462l0.328-0.045c-0.031,0.084-0.063,0.169-0.096,0.253
					c-0.239,0.627-0.56,1.466,0.08,1.938c0.021,0.158,0.053,0.334,0.091,0.525l-0.112-0.009c-0.04,0.358-0.05,0.741-0.031,1.149
					c-0.005,0.749,0.021,1.536,0.076,2.338c-0.008,0.034-0.017,0.067-0.027,0.1l-0.306,0.916l0.399-0.217
					c0.636,6.616,3.347,13.131,6.983,17.139c-0.143-0.053-0.289-0.082-0.435-0.082s-0.285,0.027-0.413,0.086l-0.682,0.305
					l0.647,0.372c0.417,0.239,0.74,0.597,1.082,0.972c0.368,0.404,0.748,0.822,1.273,1.125l0.965,0.555l-0.425-1.029
					c-0.082-0.197-0.215-0.457-0.387-0.732c0.284,0.236,0.571,0.459,0.863,0.664c0.116,0.082,0.261,0.125,0.429,0.125
					c0.111,0,0.233-0.021,0.358-0.043l0.048-0.009h0.001c0.091-0.017,0.181-0.036,0.264-0.044c0.507,0.253,0.896,0.691,1.273,1.117
					c0.341,0.385,0.664,0.748,1.066,0.972c2.433,1.347,7.107,2.519,10.646,2.667c0.293,0.01,0.584,0.018,0.876,0.018
					c3.633,0,6.998-0.932,10.154-2.311c-1.493,1.174-3.877,2.133-5.817,2.316l-0.582,0.056l0.287,0.511
					c0.217,0.387,0.571,0.59,1.023,0.59c0.547,0,1.17-0.305,1.72-0.572c0.313-0.152,0.609-0.299,0.829-0.356
					c0.058-0.014,0.172-0.021,0.319-0.032c0.495-0.043,1.271-0.109,1.856-0.377c0.085,0.043,0.166,0.051,0.215,0.051
					c0.078,0,0.147-0.019,0.209-0.041c-0.041,0.041-0.094,0.08-0.162,0.131c-0.217,0.164-0.545,0.412-0.558,0.939l-0.012,0.492
					l0.48-0.113c0.187-0.045,0.373-0.094,0.559-0.144c-0.757,0.271-1.539,0.502-2.316,0.715l-0.524,0.144l0.314,0.442
					c0.27,0.382,0.594,0.461,0.818,0.461c0.34,0,0.656-0.176,0.934-0.329c0.035-0.021,0.072-0.039,0.108-0.061
					c0.022,0.056,0.052,0.105,0.088,0.15c-0.09,0.041-0.177,0.078-0.247,0.107c-0.371,0.16-0.692,0.299-0.881,0.494l-0.871,0.896
					l1.222-0.262c1.435-0.306,2.89-0.785,4.322-1.417c-0.021,0.054-0.039,0.106-0.054,0.167l-0.098,0.393
					c-1.104,0.426-2.215,0.834-3.32,1.242l-0.534,0.194l-0.771,0.284l0.639,0.359c-0.39,0.143-1.022,0.387-1.149,0.961
					c-2.041,0.34-4.085,0.514-6.083,0.514c-15.774,0-25.44-10.186-28.864-14.562l-0.648,0.385c1.976,4.562,4.887,7.666,8.598,10.345
					c-0.855-0.498-1.676-0.897-2.459-0.954l-0.25-0.339c-0.268-0.362-0.588-0.531-1.01-0.531c-0.108,0-0.217,0.013-0.332,0.022
					c-0.081,0.011-0.162,0.021-0.242,0.021c-0.133,0-0.221-0.028-0.313-0.104l-0.689-0.564l0.017,0.221
					C5.227,61.357,0.57,50.743,0.57,39.608c0-12.389,5.797-23.751,15.013-31.155c-1.006,0.838-1.91,1.768-2.795,2.679
					c-0.597,0.615-1.215,1.25-1.85,1.842l0.429,0.618c1.207-0.602,2.653-1.929,4.053-3.212c0.624-0.572,1.217-1.116,1.781-1.592
					c0.156,0.104,0.335,0.157,0.531,0.157c0.574,0,1.223-0.455,2.045-1.03c0.171-0.12,0.35-0.245,0.537-0.372
					c0.205-0.14,0.416-0.285,0.632-0.435l0.368,0.462c0.901-0.442,1.79-0.915,2.649-1.372c0.684-0.364,1.379-0.734,2.089-1.093
					l0.123,0.082c0.154,0.102,0.352,0.154,0.587,0.154c0.758,0,1.916-0.557,2.428-1.137C29.361,4.199,29.523,4.186,29.678,4.166
					 M23.424,13.296c-0.961,0.762-1.829,1.637-2.578,2.602l-0.608,0.782l0.975-0.175c1.071-0.191,2.12-1.734,2.624-2.476
					c0.054-0.079,0.1-0.146,0.136-0.197l0.03-0.023l0.144-0.114v-0.184l-0.006-0.396h-0.38
					C23.591,13.115,23.486,13.219,23.424,13.296 M10.717,13.723c-0.439,0.252-1.299,0.948-1.38,1.655
					c-0.034,0.297,0.071,0.572,0.298,0.775l0.459,0.411l0.161-0.596c0.065-0.242,0.499-0.865,0.758-1.237
					c0.407-0.585,0.492-0.707,0.369-0.941l-0.113-0.207h-0.23C10.897,13.583,10.794,13.658,10.717,13.723 M19.018,16.171
					l0.118-0.418c0.043-0.057,0.24-0.178,0.357-0.25c0.336-0.206,0.685-0.419,0.659-0.786c-0.01-0.151-0.092-0.361-0.423-0.506
					l-0.378-0.216l-0.12,0.416c-0.043,0.058-0.24,0.178-0.357,0.25c-0.337,0.207-0.685,0.42-0.659,0.788
					c0.011,0.15,0.093,0.361,0.424,0.505L19.018,16.171 M16.432,64.443c0.248,0,0.563-0.155,0.637-0.594l0.063-0.376l-0.375-0.062
					c-0.066-0.011-0.107-0.049-0.208-0.154c-0.115-0.121-0.273-0.287-0.537-0.359l-0.32-0.089l-0.13,0.306
					c-0.118,0.277-0.082,0.594,0.099,0.867C15.848,64.26,16.15,64.443,16.432,64.443 M25.498,70.924c0.073,0,0.145-0.004,0.215-0.01
					l0.802,0.297c0.497,0.185,0.988,0.375,1.478,0.563c2.648,1.028,5.386,2.093,9.149,2.093c0.256,0,0.514-0.004,0.764-0.017h1.311
					h0.353l0.026-0.353c0.019-0.248-0.075-0.404-0.157-0.494c-0.195-0.211-0.484-0.211-0.579-0.211
					c-0.111,0-0.235,0.016-0.359,0.029l-0.054,0.006l-0.05,0.006h-0.001c-0.098,0.014-0.193,0.024-0.278,0.024
					c-0.051,0-0.068-0.005-0.072-0.006c-0.531-0.209-1.187-0.306-2.066-0.306c-0.183,0-0.372,0.004-0.564,0.012
					c-0.228-0.18-0.478-0.324-0.721-0.464c-0.268-0.154-0.521-0.3-0.724-0.479l-0.138-0.123l-0.182,0.032
					c-0.343,0.062-0.687,0.093-1.023,0.093c-1.024,0-1.907-0.272-2.795-0.58l-0.185-0.062c-0.823-0.287-1.601-0.56-2.413-0.56
					c-0.08,0-0.159,0.002-0.237,0.008l0.168-0.094L26.57,70c-1.56-0.877-3.199-1.932-4.784-2.947l-0.697-0.447
					c-0.93-0.594-2.144-1.234-2.422-1.343l-0.406,0.624c0.264,0.263,0.549,0.58,0.851,0.918c0.674,0.752,1.439,1.605,2.332,2.26
					C22.527,69.863,24.125,70.924,25.498,70.924 M73.884,55.344c0.015,0.061,0.034,0.125,0.059,0.193l0.06,0.164l0.049,0.02
					c-0.156,0.212-0.309,0.419-0.466,0.615C73.669,56.01,73.771,55.679,73.884,55.344 M60.047,57.008
					c0.099,0.066,0.204,0.111,0.325,0.111c0.049,0,0.097-0.01,0.143-0.023c-1.55,2.145-3.369,3.883-5.027,5.07
					c-0.134,0.097-0.266,0.188-0.395,0.281c0.448-0.869,1.451-1.67,2.422-2.443c0.8-0.637,1.627-1.295,2.164-2.012
					c0.174-0.229,0.245-0.514,0.308-0.764C60.008,57.155,60.027,57.081,60.047,57.008 M54.273,62.479
					c0.006,0.035,0.014,0.068,0.023,0.102l0.1,0.351c-0.586,0.396-1.084,0.698-1.476,0.905l-0.092-0.051v0.1v-0.479
					c-0.03,0-0.074,0.008-0.132,0.022C53.228,63.118,53.753,62.799,54.273,62.479 M32.167,0.186
					C13.906,4.015,0.19,20.212,0.19,39.608c0,12.084,5.322,22.926,13.749,30.311c-0.068-0.111-0.114-0.233-0.125-0.373
					c0.186,0.152,0.37,0.191,0.555,0.191c0.096,0,0.191-0.011,0.288-0.021c0.097-0.012,0.191-0.021,0.286-0.021
					c0.24,0,0.476,0.065,0.704,0.378c-0.679,0.342,0.307,0.963,0.43,0.963c0.037,0,0.003-0.055-0.165-0.179
					c-0.013-0.142-0.034-0.271-0.187-0.271c-0.01,0-0.021,0-0.034,0.002c-0.007,0.002-0.015,0.002-0.022,0.004
					c-0.006,0.002-0.015,0.002-0.022,0.002c0.008,0,0.017,0,0.022-0.002c0.008-0.002,0.015-0.004,0.022-0.004
					c0.106-0.021,0.215-0.029,0.326-0.029c1.006,0,2.171,0.729,3.367,1.459c1.196,0.73,2.423,1.459,3.549,1.459
					c0.015,0,0.03-0.002,0.048-0.002C17.086,70,12.973,66.555,10.413,60.646c5.777,7.39,15.931,14.708,29.163,14.708
					c2.074,0,4.226-0.182,6.447-0.568c-0.154-1.137,2.335-0.848,1.048-1.572c5.802-2.139,11.663-4.219,15.709-8.114
					c-0.001,0.084,0.073,0.172,0.142,0.172c0.051,0,0.103-0.045,0.121-0.172c-0.445-0.104,0.056-0.339,0-0.788
					c0.347,0.005,0.239,0.46,0.524,0.525c1.882-2.918,4.422-5.178,6.282-8.119c0.058,0.205,0.009,0.52,0.265,0.521
					c-0.182-3.295,2.109-3.074,2.878-6.02c0.172,1.4-1.339,2.49-0.524,3.666c0.096-1.135,0.454-0.791,1.047-1.047
					c0.735-2.32,1.361-4.752,2.357-6.81c-0.098,4.181-2.585,7.361-2.88,10.474c0.627-0.506,1.088-1.184,1.572-1.834
					c0.098,0.73-0.999,1.594-0.264,2.099c0.233-0.899,0.638-1.638,1.047-2.356c1,1.639-1.49,2.896-0.521,4.448
					c0.702-1.302,0.845-3.166,2.093-3.925c-0.269,0.975-1.462,2.096-1.219,3.227c0.764-1.375,1.449-2.798,2.052-4.266
					c0.34-0.945,0.558-1.902,0.477-2.891c0.124,0.113,0.216,0.16,0.286,0.16c0.361,0,0.085-1.287,0.238-1.472
					c0.013-0.014,0.039-0.021,0.074-0.021c0.052,0,0.119,0.012,0.188,0.022c0.068,0.013,0.136,0.021,0.187,0.021
					c0.106-0.371,0.209-0.746,0.305-1.123c-0.018-0.366-0.068-0.758,0.031-1.26c0.058-0.281,0.241-0.502,0.419-0.713
					c0.523-2.593,0.796-5.271,0.796-8.015c0-18.35-12.269-33.833-29.054-38.693c-0.664,0.162-1.336,0.429-2.012,0.815
					c-0.057-0.205-0.005-0.517-0.26-0.525c-1.046,0.721-2.861,0.94-3.929,2.093c-0.241,0.266-0.05,0.992-0.261,1.312
					c-0.093,0.14-0.662,0.104-0.786,0.261c-1.226,1.555-1.227,3.689-0.523,5.241c0.912,1.008,2.846,4.087,4.974,5.233
					c0.248-0.047,0.48-0.068,0.699-0.068c0.718,0,1.294,0.215,1.807,0.428c0.511,0.213,0.957,0.428,1.413,0.428
					c0.003,0,0.006,0,0.01,0c-0.265-0.003-0.329-0.458,0-0.525c2.033,0.344,3.075,0.947,4.975,1.835
					c0.219-0.77-1.561-0.851-0.784-1.31c1.56,0.706,2.518,2.021,4.715,2.096c0.585,1.063,1.932,1.483,2.875,2.881
					c0.669,0.978,0.872,2.671,1.835,2.879c-0.204-0.06-0.303-0.219-0.261-0.524c1.002,0.192,0.952,1.726,1.047,2.094
					c0.062-0.035,0.122-0.052,0.182-0.052c0.781,0,1.389,2.861,1.128,3.458c0.005-0.618-0.451-0.774-0.264-1.572
					c-1.888-0.677-2.26-4.196-4.067-4.196c-0.038,0-0.08,0.001-0.121,0.006c1.691,1.291,2.356,2.971,2.356,4.19
					c-1.841-2.521-4.301-5.823-7.594-6.021c1.578,1.737,4.056,2.578,4.977,4.974c-0.78-0.093-1.33-0.416-1.833-0.786
					c0.43,1.063,1.583,1.664,0.261,1.834c2.051,0.549,4.872,4.923,3.929,7.593c-0.041-0.307,0.044-0.742-0.262-0.784
					c0.207,2.095,1.309,6.3,0.786,9.166c1.272,0.78,0.831,5.67-0.524,6.021c-0.196,0.807,0.903,0.316,0.524,1.307
					c-0.032-0.001-0.061-0.002-0.092-0.002c-0.814,0-1.117,0.799-1.334,1.602c-0.215,0.801-0.347,1.602-0.824,1.602
					c-0.164,0-0.368-0.096-0.631-0.318c-0.697,1.924-1.959,3.281-2.618,5.237c-0.125-0.144-0.221-0.2-0.296-0.2
					c-0.157,0-0.23,0.245-0.311,0.489c-0.078,0.239-0.158,0.483-0.331,0.483c-0.095,0-0.213-0.067-0.374-0.248v1.045
					c-0.405,0.377-1.02,0.552-1.57,0.787c0.301,1.442-2.045,1.609-1.308,2.617c0.597-0.037,1.232-1.1,1.492-1.1
					c0.032,0,0.058,0.016,0.078,0.053c-0.657,0.742-1.133,1.658-1.57,2.618c0.096,0.062,0.171,0.086,0.231,0.086
					c0.31,0,0.21-0.688,0.553-0.87c0.023-0.014,0.045-0.02,0.065-0.02c0.101,0,0.168,0.137,0.229,0.273
					c0.062,0.139,0.116,0.276,0.193,0.276c0.012,0,0.022-0.004,0.036-0.013c0.046-0.02,0.961-0.996,1.311-1.309
					c0.355-0.314,0.612-1.107,1.076-1.107c0.073,0,0.149,0.019,0.23,0.062c-3.415,4.264-8.789,7.969-14.401,9.162
					c0.395-0.406,2.206-0.744,1.571-1.311c-0.063,0.209-0.169,0.289-0.264,0.289c-0.195,0-0.349-0.336,0.003-0.551
					c-0.021,0-0.046-0.002-0.068-0.002c-0.251,0-0.51,0.141-0.767,0.28c-0.256,0.144-0.511,0.283-0.75,0.283
					c-0.179,0-0.352-0.08-0.508-0.302c2.671-0.729,5.166-1.639,6.805-3.4c-1.562,0.878-3.262,1.622-5.235,2.094
					c0.019-0.77,0.997-0.572,0.784-1.57c-0.042-0.01-0.085-0.018-0.125-0.018c-0.123,0-0.229,0.042-0.315,0.088
					c-0.085,0.041-0.156,0.081-0.213,0.081c-0.056,0-0.097-0.038-0.131-0.151c-0.678,0.476-2.107,0.455-2.357,0.523
					c-0.662,0.182-1.703,0.919-2.45,0.919c-0.285,0-0.529-0.106-0.692-0.397c2.049-0.194,4.711-1.254,6.284-2.617
					c0.766-0.659,4.47-2.355,4.713-2.355c0.001,0,0.001,0,0.001,0c-0.006,0-0.268,0.547-0.084,0.547
					c0.022,0,0.049-0.008,0.085-0.023c0.809-0.381,2.005-1.202,2.88-1.832c4.245-3.041,8.416-8.648,8.9-14.924
					c0.485-0.428,1.095-0.817,0.266-1.309c-1.647,3.934-2.125,7.719-4.452,10.471c-0.014,0.018-0.031,0.025-0.052,0.025
					c-0.063,0-0.157-0.074-0.243-0.146c-0.088-0.074-0.168-0.145-0.21-0.145c-0.009,0-0.015,0.004-0.021,0.008
					c-0.295,0.354-0.257,0.957-0.522,1.311c-1.198,1.597-3.962,2.928-4.715,4.71c-0.058-0.201-0.005-0.515-0.261-0.522
					c-4.759,2.959-10.435,6.041-16.942,6.041c-0.287,0-0.574-0.007-0.863-0.017c-3.625-0.151-8.239-1.382-10.475-2.619
					c-0.768-0.428-1.312-1.577-2.354-2.097c-0.05-0.023-0.109-0.032-0.174-0.032c-0.101,0-0.216,0.021-0.332,0.043
					c-0.116,0.021-0.231,0.044-0.335,0.044c-0.081,0-0.153-0.016-0.208-0.055c-5.006-3.521-8.742-11.635-9.364-19.674
					c-0.02,0.013-0.04,0.022-0.062,0.035c0.021-0.062,0.037-0.127,0.05-0.192c-0.056-0.789-0.084-1.578-0.079-2.362
					c-0.016-0.357-0.013-0.73,0.029-1.109c-0.017,0.367-0.026,0.74-0.029,1.109c0.039,0.93,0.193,1.762,0.079,2.362
					c0.004,0.052,0.009,0.104,0.012,0.157c0.978-0.641,0.027-3.324-0.062-4.416c-1.098-0.545,0.791-2.376,0-3.142
					c-0.044,0.31,0.044,0.741-0.263,0.783c0.404-6.941,3.034-11.838,6.022-15.707c1.104-1.43,2.227-3.231,3.666-3.405
					c0.23,0.841-0.862,0.357-0.786,1.045c0.832-0.312,2.222-1.432,2.097-1.832c-0.297,0.278-0.781,0.685-1.192,0.685
					c-0.139,0-0.269-0.048-0.38-0.159c1.233-1.14,2.576-3.168,4.366-3.168c0.114,0,0.229,0.008,0.348,0.025
					c1.012-2.228,2.488-1.464,2.979-2.251c-0.072,0.08-0.159,0.112-0.247,0.112c-0.232,0-0.495-0.229-0.638-0.479
					c-0.884,0.844-1.758,1.302-2.095,2.095c-0.719,0.061-1.293,0.244-2.096,0.784c2.018-2.348,4.928-3.8,7.594-5.498
					c-0.825,0.139-1.46,0.459-2.095,0.786c0.035-0.311,0.464-0.594,0-0.786c-1.161,2.064-4.184,2.273-6.023,3.665
					c1.788-2.053,4.802-2.879,6.545-4.976c-3.48,1.144-6.555,4.093-9.425,4.976c1.508-0.587,2.295-1.894,3.93-2.355
					c0.225-0.706,0.923-1.117,1.57-1.573c1.083-0.754,2.989-1.106,2.879-2.094c-3.101,0.629-6.646,2.432-9.164,4.451
					c2.295-2.844,7.724-4.909,9.508-6.858c-0.025,0.007-0.053,0.011-0.078,0.011c-0.116,0-0.234-0.066-0.266-0.223
					c0.688-0.281,3.278-1.129,2.356-1.311c-1.137,0.324-1.867,1.05-3.33,1.05c-0.023,0-0.047-0.001-0.072-0.001
					c-0.342,0.529-1.53,1.137-2.242,1.137c-0.151,0-0.281-0.027-0.377-0.091c0.614-0.357,2.586-0.715,2.095-1.307
					c-2.599,1.068-4.873,2.459-7.333,3.665c0.802-0.984,1.914-1.652,3.072-2.277c-0.401,0.097-0.798,0.19-1.19,0.282
					c-1.051,0.682-2.045,1.394-2.928,1.995c-1.017,0.691-1.812,1.336-2.368,1.336c-0.201,0-0.373-0.087-0.513-0.286
					c-1.921,1.57-4.271,4.1-6.022,4.974c2.214-2.062,4.06-4.491,6.808-6.023c0.026,0.293-0.38,0.407,0,0.523
					c0.164-0.63,0.087-0.85-0.122-0.85c-0.419,0-1.364,0.874-1.971,1.112c1.931-1.561,4.396-2.141,7.116-2.781
					c0.748-0.483,1.527-0.948,2.315-1.346c1.262-0.801,3.354-1.051,3.322-2.142c-3.018,1.027-6.301,3.581-8.642,3.667
					C23.438,3.037,28.003,1.813,32.167,0.186L32.167,0.186z M21.146,16.131c0.747-0.961,1.598-1.815,2.552-2.567
					c0.032-0.044,0.055-0.069,0.063-0.069c0.006,0,0.006,0.006,0.006,0.017c-0.023,0.019-0.047,0.036-0.069,0.053
					C23.402,13.962,22.208,15.941,21.146,16.131L21.146,16.131z M9.888,15.871c-0.617-0.553,0.53-1.552,1.048-1.835
					c0.058-0.05,0.09-0.072,0.103-0.072C11.149,13.963,10.029,15.349,9.888,15.871L9.888,15.871z M18.79,15.606
					c-0.699-0.304,0.683-0.684,0.787-1.046C20.275,14.865,18.892,15.244,18.79,15.606L18.79,15.606z M66.446,31.842
					c-0.376-0.06-0.09-0.784-0.522-0.787c0.026-0.163,0.088-0.229,0.159-0.229C66.297,30.826,66.615,31.44,66.446,31.842
					L66.446,31.842z M73.777,34.983c-0.604-0.268-0.541-1.202-0.521-2.094C73.859,33.158,73.794,34.094,73.777,34.983L73.777,34.983
					z M67.495,38.911c-0.707-1.017-1.242-3.079-0.785-4.45C67.138,36.18,67.332,36.749,67.495,38.911L67.495,38.911z M68.015,45.194
					c-0.431-0.262-0.282-1.109-0.521-1.57c0.203,0.135,0.408,0.265,0.741,0.265c0.015,0,0.027,0,0.042,0
					C68.387,44.518,67.8,44.458,68.015,45.194L68.015,45.194z M70.375,53.573c-0.473-1.02,0.163-2.189,0.521-3.14
					c0.019,5.034-3.766,9.521-6.808,13.092c0.132-1.819,2.601-3.298,3.665-5.237c0.354-0.643-0.228-1.438,0.787-1.572
					c0.082-1.418,0.956-3.146,1.756-3.146C70.324,53.568,70.35,53.57,70.375,53.573L70.375,53.573z M74.449,55.438
					c-0.046,0-0.096-0.012-0.148-0.029c-0.299-0.824,0.412-0.64,0.526-1.049c0.015-0.007,0.028-0.01,0.04-0.01
					c0.129,0,0.15,0.271,0.074,0.544C74.867,55.167,74.698,55.438,74.449,55.438L74.449,55.438z M65.923,56.977
					c-0.477-0.325,0.564-1.337,0.786-1.832C67.25,55.536,65.981,56.319,65.923,56.977L65.923,56.977z M61.471,62.215
					c0.611-1.75,2.877-4.104,3.929-6.283c0.248,1.04-1.395,2.439-2.094,3.404c0.019,0.151,0.071,0.213,0.139,0.213
					c0.213,0,0.585-0.563,0.645-0.738C64.003,59.691,62.171,61.079,61.471,62.215L61.471,62.215z M21.67,63.786
					c-0.944-0.541-1.415-1.554-2.354-2.095c0.081-0.036,0.169-0.053,0.258-0.053C20.353,61.638,21.326,62.952,21.67,63.786
					L21.67,63.786z M16.432,64.063c-0.288,0-0.683-0.422-0.521-0.803c0.343,0.096,0.409,0.463,0.783,0.525
					C16.662,63.983,16.556,64.063,16.432,64.063L16.432,64.063z M25.498,70.543c-1.257,0-2.782-1.016-3.827-1.785
					c-1.261-0.924-2.282-2.286-3.141-3.141c0.254,0.098,1.452,0.73,2.355,1.309c1.792,1.146,3.698,2.393,5.499,3.404
					C26.114,70.481,25.815,70.543,25.498,70.543L25.498,70.543z M51.26,71.118c0.21-0.836,1.346-0.748,1.83-1.307
					C53.363,70.097,51.95,70.922,51.26,71.118L51.26,71.118z M37.141,73.488c-4.375,0-7.299-1.448-10.495-2.632
					c0.198-0.039,0.393-0.057,0.588-0.057c0.805,0,1.603,0.3,2.473,0.602c0.872,0.301,1.816,0.602,2.92,0.602
					c0.347,0,0.709-0.029,1.09-0.1c0.462,0.411,1.106,0.639,1.568,1.047c0.236-0.013,0.47-0.019,0.693-0.019
					c0.735,0,1.397,0.071,1.927,0.278c0.059,0.023,0.13,0.033,0.211,0.033c0.112,0,0.241-0.02,0.372-0.033
					c0.127-0.017,0.256-0.033,0.37-0.033c0.217,0,0.375,0.062,0.357,0.297h-1.311C37.645,73.484,37.392,73.488,37.141,73.488
					L37.141,73.488z"/>
			</g>
			<g>
				<path fill="#FFFFFF" d="M25.226,4.199c0.067-0.051,0.14-0.102,0.218-0.151c0.146-0.073,0.29-0.143,0.432-0.208
					C25.661,3.962,25.444,4.082,25.226,4.199z"/>
				<path fill="#FFFFFF" d="M27.432,3.038c-0.696,0.206-1.398,0.503-2.089,0.85c-0.38,0.239-0.685,0.53-0.835,0.909
					C25.528,4.253,26.562,3.729,27.432,3.038L27.432,3.038z"/>
			</g>
		</g>
	</g>
</g>
</svg>
